<svg width="45" height="48" viewBox="0 0 45 48" fill="none" xmlns="http://www.w3.org/2000/svg">
<path d="M16.6814 38.4H23.4C23.3104 40.3322 22.7857 41.8538 21.8259 43.3284C20.8661 44.803 19.5352 45.9534 17.8331 46.7797C16.1439 47.5932 14.1475 48 11.844 48C9.97555 48 8.3055 47.6886 6.8338 47.0657C5.3749 46.4428 4.13355 45.5466 3.10976 44.3771C2.09877 43.2076 1.32453 41.7903 0.787039 40.125C0.262346 38.4597 0 27.2034 0 25.1186V23.6123C0 21.5275 0.300738 9.57839 0.851026 7.91314C1.41411 6.23517 2.20755 4.81144 3.23134 3.64195C4.26792 2.45975 5.50927 1.5572 6.95537 0.934322C8.40148 0.311441 10.0075 0 11.7736 0C14.2051 0 16.2591 0.432203 17.9355 1.29661C19.612 2.16102 20.9109 3.34958 21.8323 4.86229C22.7537 6.36229 23.2272 8.88051 23.3936 10.8H16.675C16.6494 9.75763 16.5406 8.07839 16.2079 7.37924C15.8751 6.66737 15.3505 6.13347 14.6338 5.77754C13.9171 5.42161 12.9637 5.24364 11.7736 5.24364C10.9418 5.24364 10.2187 5.39619 9.60443 5.70127C8.99016 6.00636 8.47826 6.48941 8.06874 7.15042C7.65923 7.81144 7.35209 8.66949 7.14733 9.72458C6.95537 10.7669 6.8338 22.0996 6.8338 23.5742V25.1186C6.8338 26.5932 6.92338 37.2331 7.10254 38.2754C7.28171 39.3178 7.56965 40.1695 7.96637 40.8305C8.36308 41.4915 8.87498 41.9809 9.50205 42.2987C10.1419 42.6038 10.9226 42.7564 11.844 42.7564C12.8678 42.7564 13.7316 42.5975 14.4354 42.2797C15.1393 41.9492 15.6832 41.4534 16.0671 40.7924C16.451 40.1186 16.6558 39.4424 16.6814 38.4Z" fill="#8886FA"/>
<path d="M39.6 33.5472V38.4H28.1676V33.5472H39.6ZM28.1676 10.8V38.4H23.4V10.8H28.1676Z" fill="#8886FA"/>
<rect x="40.2" y="33.6" width="4.8" height="4.8" fill="#8886FA"/>
</svg>
