<svg width="24" height="25" viewBox="0 0 24 25" fill="none" xmlns="http://www.w3.org/2000/svg">
<path d="M20.4824 19.5263L20 20.0086C18.51 21.4986 13.0001 22.0087 7.50015 16.5087C2.00015 11.0087 2.50005 5.50864 4.00005 4.00864L4.49111 3.51758C5.27198 2.73671 6.57157 2.8659 7.18415 3.78475L9.20431 6.8149C9.66705 7.509 9.57553 8.43324 8.98564 9.0231L7.9371 10.0716C7.66925 10.3394 7.57954 10.7347 7.75437 11.0708C8.07308 11.6833 8.73789 12.7465 10.0001 14.0087C11.2624 15.271 12.3254 15.9357 12.9379 16.2544C13.274 16.4293 13.6692 16.3395 13.9371 16.0717L14.9856 15.0232C15.5755 14.4333 16.4997 14.3418 17.1938 14.8045L20.2137 16.8178C21.1378 17.4338 21.2678 18.7409 20.4824 19.5263Z" fill="#8886FA"/>
</svg>
