<svg width="624" height="408" viewBox="0 0 624 408" fill="none" xmlns="http://www.w3.org/2000/svg">
<g clip-path="url(#clip0_31_4696)">
<path d="M21.9171 345.387L86.5 409.97H624.5V-3.53H296L22.2361 265.875C0.0667515 287.691 -0.0765095 323.393 21.9171 345.387Z" fill="url(#paint0_linear_31_4696)"/>
<path d="M527.21 255.08C541.334 255.082 555.14 259.272 566.883 267.121C578.625 274.97 587.776 286.124 593.179 299.174C598.582 312.224 599.993 326.583 597.235 340.435C594.477 354.287 587.673 367.01 577.684 376.995C567.695 386.98 554.969 393.779 541.115 396.531C527.262 399.283 512.904 397.866 499.856 392.458C486.809 387.049 475.658 377.893 467.814 366.148C459.97 354.402 455.786 340.594 455.79 326.47H420.32C420.316 347.612 426.582 368.28 438.324 385.86C450.067 403.441 466.76 417.144 486.291 425.238C505.822 433.331 527.315 435.451 548.051 431.329C568.787 427.206 587.835 417.028 602.786 402.08C617.736 387.132 627.919 368.086 632.045 347.351C636.171 326.615 634.055 305.122 625.965 285.59C617.876 266.057 604.175 249.362 586.597 237.616C569.019 225.869 548.352 219.6 527.21 219.6V255.08Z" fill="url(#paint1_linear_31_4696)"/>
<path d="M462.31 -18C453.301 -18 444.494 -15.3285 437.004 -10.3234C429.513 -5.31834 423.675 1.7956 420.227 10.1188C416.78 18.4419 415.878 27.6005 417.635 36.4364C419.393 45.2722 423.731 53.3884 430.101 59.7587C436.471 66.129 444.588 70.4672 453.424 72.2248C462.259 73.9823 471.418 73.0803 479.741 69.6327C488.064 66.1852 495.178 60.3469 500.183 52.8562C505.188 45.3656 507.86 36.5589 507.86 27.55C507.857 15.4702 503.057 3.88592 494.516 -4.65578C485.974 -13.1975 474.39 -17.9973 462.31 -18ZM462.31 56.55C456.574 56.55 450.967 54.8492 446.198 51.6626C441.429 48.4761 437.712 43.9469 435.517 38.6478C433.322 33.3488 432.748 27.5178 433.867 21.8924C434.986 16.2669 437.748 11.0996 441.804 7.04391C445.86 2.98818 451.027 0.226202 456.652 -0.892769C462.278 -2.01174 468.109 -1.43745 473.408 0.757492C478.707 2.95243 483.236 6.66944 486.422 11.4385C489.609 16.2075 491.31 21.8143 491.31 27.55C491.31 31.3583 490.56 35.1294 489.102 38.6478C487.645 42.1663 485.509 45.3632 482.816 48.0561C480.123 50.749 476.926 52.8851 473.408 54.3425C469.889 55.7999 466.118 56.55 462.31 56.55Z" fill="url(#paint2_linear_31_4696)"/>
<path d="M628.63 64.29C619.621 64.29 610.814 66.9615 603.324 71.9666C595.833 76.9717 589.995 84.0856 586.547 92.4088C583.1 100.732 582.198 109.891 583.955 118.726C585.713 127.562 590.051 135.678 596.421 142.049C602.791 148.419 610.908 152.757 619.744 154.515C628.579 156.272 637.738 155.37 646.061 151.923C654.384 148.475 661.498 142.637 666.503 135.146C671.508 127.656 674.18 118.849 674.18 109.84C674.18 97.7594 669.381 86.1736 660.839 77.6313C652.296 69.089 640.71 64.29 628.63 64.29ZM628.63 138.84C622.894 138.84 617.287 137.139 612.518 133.953C607.749 130.766 604.032 126.237 601.837 120.938C599.642 115.639 599.068 109.808 600.187 104.182C601.306 98.5569 604.068 93.3896 608.124 89.3339C612.179 85.2782 617.347 82.5162 622.972 81.3972C628.598 80.2783 634.429 80.8526 639.728 83.0475C645.027 85.2424 649.556 88.9594 652.742 93.7285C655.929 98.4975 657.63 104.104 657.63 109.84C657.63 117.531 654.575 124.908 649.136 130.346C643.697 135.785 636.321 138.84 628.63 138.84Z" fill="url(#paint3_linear_31_4696)"/>
<path d="M201.18 190.47H177.51C179.277 199.329 178.158 213.262 174.317 221.438C170.476 229.615 164.116 236.345 156.169 240.641C148.222 244.937 139.107 246.573 130.162 245.309C121.217 244.044 112.913 239.946 106.469 233.615C100.024 227.285 95.7782 219.055 94.3543 210.134C92.9303 201.214 94.4032 192.071 98.5568 184.049C102.71 176.027 109.326 169.547 117.433 165.56C125.539 161.574 139.01 155.991 147.9 157.6V138.17C133.944 135.654 119.549 137.677 106.828 143.942C94.1058 150.207 83.7267 160.384 77.2131 172.981C70.6995 185.577 68.3942 199.929 70.6356 213.932C72.8769 227.934 79.5468 240.85 89.6668 250.783C99.7867 260.717 112.824 267.146 126.866 269.127C140.907 271.108 155.214 268.537 167.687 261.791C180.161 255.044 190.144 244.478 196.171 231.642C202.199 218.806 203.954 204.377 201.18 190.47Z" fill="url(#paint4_linear_31_4696)"/>
<g style="mix-blend-mode:multiply" filter="url(#filter0_f_31_4696)">
<path d="M386.028 395.928C503.746 395.928 599.174 390.667 599.174 384.178C599.174 377.689 503.746 372.429 386.028 372.429C268.311 372.429 172.882 377.689 172.882 384.178C172.882 390.667 268.311 395.928 386.028 395.928Z" fill="url(#paint5_linear_31_4696)" style="mix-blend-mode:multiply"/>
</g>
<path style="mix-blend-mode:screen" d="M493.982 89.5133V251.076C493.982 252.444 493.438 253.755 492.469 254.722C491.5 255.69 490.187 256.233 488.817 256.233H245.381C244.011 256.233 242.697 255.69 241.728 254.722C240.76 253.755 240.215 252.444 240.215 251.076V89.5133C240.215 86.3759 241.464 83.3669 243.686 81.1484C245.908 78.9299 248.922 77.6836 252.064 77.6836H482.144C485.285 77.6866 488.296 78.9343 490.515 81.1525C492.735 83.3707 493.982 86.3779 493.982 89.5133Z" fill="url(#paint6_linear_31_4696)"/>
<path d="M493.982 89.5133V91.9023H240.158V89.5133C240.158 86.3759 241.406 83.3669 243.628 81.1484C245.85 78.9299 248.864 77.6836 252.007 77.6836H482.087C483.647 77.6775 485.192 77.979 486.635 78.5708C488.078 79.1626 489.39 80.033 490.495 81.1321C491.6 82.2312 492.477 83.5374 493.076 84.9756C493.674 86.4139 493.982 87.9559 493.982 89.5133Z" fill="url(#paint7_linear_31_4696)"/>
<path d="M462.461 84.7929C462.461 85.1813 462.346 85.561 462.129 85.884C461.913 86.207 461.606 86.4587 461.247 86.6074C460.887 86.756 460.492 86.7949 460.11 86.7191C459.728 86.6434 459.378 86.4563 459.103 86.1816C458.828 85.907 458.64 85.557 458.564 85.1761C458.489 84.7951 458.527 84.4002 458.676 84.0413C458.825 83.6825 459.077 83.3757 459.401 83.1599C459.724 82.9441 460.105 82.8289 460.494 82.8289C461.015 82.8319 461.513 83.0398 461.881 83.4075C462.25 83.7752 462.458 84.273 462.461 84.7929Z" fill="url(#paint8_linear_31_4696)"/>
<path d="M471.595 84.7929C471.595 85.1813 471.48 85.561 471.264 85.884C471.048 86.207 470.74 86.4587 470.381 86.6074C470.021 86.756 469.626 86.7949 469.244 86.7191C468.863 86.6434 468.512 86.4563 468.237 86.1816C467.962 85.907 467.775 85.557 467.699 85.1761C467.623 84.7951 467.662 84.4002 467.811 84.0413C467.96 83.6825 468.212 83.3757 468.535 83.1599C468.859 82.9441 469.239 82.8289 469.628 82.8289C469.886 82.8289 470.142 82.8797 470.381 82.9784C470.62 83.0771 470.836 83.2218 471.019 83.4041C471.202 83.5865 471.347 83.803 471.445 84.0413C471.544 84.2796 471.595 84.535 471.595 84.7929Z" fill="url(#paint9_linear_31_4696)"/>
<path d="M480.143 84.7929C480.143 85.1813 480.027 85.561 479.811 85.884C479.595 86.207 479.288 86.4587 478.928 86.6074C478.569 86.756 478.173 86.7949 477.792 86.7191C477.41 86.6434 477.06 86.4563 476.784 86.1816C476.509 85.907 476.322 85.557 476.246 85.1761C476.17 84.7951 476.209 84.4002 476.358 84.0413C476.507 83.6825 476.759 83.3757 477.083 83.1599C477.406 82.9441 477.786 82.8289 478.175 82.8289C478.434 82.8289 478.69 82.8797 478.928 82.9784C479.167 83.0771 479.384 83.2218 479.566 83.4041C479.749 83.5865 479.894 83.803 479.993 84.0413C480.092 84.2796 480.143 84.535 480.143 84.7929Z" fill="url(#paint10_linear_31_4696)"/>
<g filter="url(#filter1_d_31_4696)">
<path d="M329.647 113.38H262.993C260.16 113.38 257.863 115.673 257.863 118.502V229.955C257.863 232.784 260.16 235.077 262.993 235.077H329.647C332.481 235.077 334.778 232.784 334.778 229.955V118.502C334.778 115.673 332.481 113.38 329.647 113.38Z" fill="white"/>
</g>
<path d="M327.266 125.267V159.906C327.26 160.912 326.857 161.874 326.143 162.584C325.43 163.293 324.465 163.693 323.458 163.696H269.182C268.176 163.693 267.213 163.293 266.501 162.583C265.79 161.873 265.389 160.911 265.386 159.906V125.267C265.386 124.769 265.484 124.276 265.675 123.816C265.866 123.357 266.145 122.939 266.498 122.587C266.851 122.235 267.269 121.956 267.73 121.765C268.19 121.575 268.684 121.477 269.182 121.477H323.458C324.466 121.477 325.433 121.876 326.147 122.586C326.861 123.297 327.263 124.261 327.266 125.267Z" fill="#A4BBFC"/>
<path d="M327.266 151.373V159.906C327.26 160.912 326.857 161.874 326.143 162.584C325.43 163.293 324.465 163.693 323.458 163.696H269.182C268.176 163.693 267.213 163.293 266.501 162.583C265.79 161.873 265.389 160.911 265.386 159.906V151.373L282.32 134.96C282.6 134.686 282.933 134.471 283.298 134.327C283.662 134.183 284.052 134.113 284.445 134.122C284.837 134.13 285.223 134.217 285.582 134.377C285.94 134.537 286.262 134.766 286.53 135.052L301.371 150.707C301.832 151.194 302.466 151.482 303.137 151.507C303.808 151.533 304.463 151.295 304.96 150.844L313.841 142.805C314.515 142.191 315.4 141.859 316.312 141.878C317.224 141.898 318.094 142.266 318.742 142.908L327.266 151.373Z" fill="url(#paint11_linear_31_4696)"/>
<path d="M315.371 137.315C317.804 137.315 319.777 135.345 319.777 132.916C319.777 130.487 317.804 128.517 315.371 128.517C312.937 128.517 310.965 130.487 310.965 132.916C310.965 135.345 312.937 137.315 315.371 137.315Z" fill="url(#paint12_linear_31_4696)"/>
<path d="M295.308 180.786H268.676C267.804 180.786 266.967 180.44 266.35 179.824C265.733 179.208 265.386 178.373 265.386 177.502C265.389 176.632 265.737 175.8 266.354 175.186C266.971 174.573 267.806 174.228 268.676 174.228H295.308C296.179 174.228 297.014 174.573 297.63 175.186C298.247 175.8 298.595 176.632 298.598 177.502C298.598 178.373 298.251 179.208 297.634 179.824C297.017 180.44 296.181 180.786 295.308 180.786Z" fill="url(#paint13_linear_31_4696)"/>
<path d="M288.751 189.596H266.64C266.476 189.597 266.313 189.566 266.161 189.504C266.009 189.443 265.871 189.352 265.754 189.236C265.637 189.121 265.545 188.984 265.482 188.833C265.419 188.681 265.386 188.519 265.386 188.355C265.386 188.023 265.518 187.705 265.753 187.47C265.989 187.235 266.307 187.103 266.64 187.103H288.751C288.915 187.103 289.077 187.136 289.229 187.199C289.38 187.262 289.518 187.354 289.633 187.471C289.749 187.587 289.84 187.725 289.902 187.877C289.964 188.029 289.995 188.191 289.993 188.355C289.993 188.684 289.862 189 289.629 189.232C289.396 189.465 289.08 189.596 288.751 189.596Z" fill="#BCCAFC"/>
<path d="M314.129 195.591H266.64C266.307 195.591 265.989 195.459 265.753 195.224C265.518 194.989 265.386 194.671 265.386 194.339C265.386 194.175 265.419 194.013 265.482 193.862C265.545 193.71 265.637 193.573 265.754 193.458C265.871 193.342 266.009 193.251 266.161 193.19C266.313 193.128 266.476 193.097 266.64 193.099H314.129C314.458 193.099 314.774 193.229 315.007 193.462C315.24 193.695 315.371 194.01 315.371 194.339C315.372 194.503 315.341 194.665 315.28 194.817C315.218 194.969 315.127 195.107 315.011 195.224C314.896 195.34 314.758 195.432 314.607 195.495C314.455 195.558 314.293 195.591 314.129 195.591Z" fill="#BCCAFC"/>
<path d="M314.129 201.575H266.64C266.476 201.576 266.313 201.545 266.161 201.484C266.009 201.422 265.871 201.331 265.754 201.215C265.637 201.1 265.545 200.963 265.482 200.812C265.419 200.66 265.386 200.498 265.386 200.334C265.386 200.17 265.419 200.008 265.482 199.857C265.545 199.706 265.637 199.568 265.754 199.453C265.871 199.338 266.009 199.247 266.161 199.185C266.313 199.123 266.476 199.092 266.64 199.094H314.129C314.292 199.094 314.453 199.126 314.604 199.188C314.755 199.251 314.892 199.342 315.007 199.457C315.122 199.572 315.214 199.709 315.276 199.86C315.339 200.01 315.371 200.171 315.371 200.334C315.371 200.663 315.24 200.979 315.007 201.211C314.774 201.444 314.458 201.575 314.129 201.575Z" fill="#BCCAFC"/>
<path d="M304.81 207.57H266.64C266.476 207.571 266.313 207.541 266.161 207.479C266.009 207.417 265.871 207.326 265.754 207.211C265.637 207.095 265.545 206.958 265.482 206.807C265.419 206.656 265.386 206.493 265.386 206.33C265.386 205.998 265.518 205.679 265.753 205.444C265.989 205.21 266.307 205.078 266.64 205.078H304.81C304.974 205.078 305.137 205.11 305.288 205.173C305.44 205.236 305.577 205.329 305.693 205.445C305.808 205.561 305.9 205.7 305.961 205.851C306.023 206.003 306.054 206.166 306.053 206.33C306.053 206.659 305.922 206.974 305.689 207.207C305.456 207.439 305.14 207.57 304.81 207.57Z" fill="#BCCAFC"/>
<path d="M310.689 226.842H281.929C280.858 226.842 279.831 226.417 279.074 225.661C278.316 224.905 277.891 223.88 277.891 222.811C277.894 221.744 278.321 220.721 279.078 219.968C279.835 219.214 280.86 218.791 281.929 218.791H310.689C311.757 218.791 312.781 219.215 313.536 219.968C314.291 220.722 314.715 221.745 314.715 222.811C314.715 223.878 314.291 224.902 313.537 225.657C312.782 226.413 311.758 226.839 310.689 226.842Z" fill="url(#paint14_linear_31_4696)"/>
<g filter="url(#filter2_d_31_4696)">
<path d="M385.81 117.308V170.3C385.81 171.342 385.395 172.341 384.657 173.078C383.92 173.815 382.919 174.228 381.875 174.228H348.514C347.469 174.228 346.467 173.815 345.728 173.079C344.988 172.342 344.571 171.343 344.568 170.3V117.308C344.571 116.265 344.988 115.266 345.728 114.529C346.467 113.793 347.469 113.38 348.514 113.38H381.875C382.919 113.38 383.92 113.793 384.657 114.53C385.395 115.267 385.81 116.266 385.81 117.308Z" fill="white"/>
</g>
<path d="M344.51 162.525H385.81V170.323C385.81 171.365 385.395 172.364 384.657 173.101C383.92 173.837 382.919 174.251 381.876 174.251H348.514C347.469 174.251 346.467 173.838 345.728 173.102C344.988 172.365 344.571 171.366 344.568 170.323L344.51 162.525Z" fill="url(#paint15_linear_31_4696)"/>
<path d="M365.16 124.256C362.473 124.254 359.845 125.047 357.609 126.536C355.373 128.026 353.63 130.143 352.6 132.621C351.57 135.1 351.299 137.827 351.822 140.459C352.345 143.091 353.638 145.509 355.538 147.407C357.437 149.305 359.858 150.598 362.494 151.123C365.13 151.647 367.862 151.379 370.345 150.353C372.829 149.327 374.951 147.588 376.444 145.357C377.938 143.126 378.735 140.503 378.735 137.82C378.736 136.039 378.386 134.276 377.705 132.63C377.023 130.985 376.024 129.489 374.763 128.23C373.502 126.97 372.005 125.971 370.358 125.289C368.71 124.607 366.944 124.256 365.16 124.256ZM365.16 148.272C363.086 148.274 361.059 147.662 359.333 146.513C357.608 145.364 356.263 143.73 355.469 141.818C354.674 139.906 354.465 137.801 354.869 135.77C355.273 133.74 356.272 131.874 357.738 130.41C359.205 128.946 361.073 127.949 363.107 127.546C365.141 127.143 367.249 127.351 369.165 128.144C371.08 128.938 372.717 130.28 373.867 132.003C375.018 133.725 375.631 135.75 375.629 137.82C375.629 140.592 374.526 143.25 372.563 145.211C370.599 147.171 367.937 148.272 365.16 148.272Z" fill="#A4BBFC"/>
<path d="M378.735 137.82C378.737 140.378 378.012 142.885 376.646 145.049C375.28 147.214 373.327 148.947 371.015 150.049C368.702 151.151 366.124 151.577 363.579 151.276C361.035 150.976 358.627 149.962 356.636 148.352L358.591 145.952C359.895 146.999 361.432 147.719 363.072 148.051C364.712 148.384 366.408 148.319 368.018 147.862C369.628 147.404 371.104 146.569 372.324 145.424C373.543 144.28 374.47 142.861 375.027 141.285C375.583 139.709 375.753 138.023 375.523 136.368C375.292 134.713 374.667 133.138 373.701 131.774C372.735 130.41 371.455 129.297 369.969 128.528C368.483 127.76 366.834 127.358 365.16 127.357V124.256C366.944 124.256 368.71 124.607 370.358 125.289C372.006 125.971 373.502 126.97 374.763 128.23C376.024 129.489 377.023 130.985 377.705 132.63C378.387 134.276 378.737 136.039 378.735 137.82Z" fill="url(#paint16_linear_31_4696)"/>
<path d="M369.601 139.267H360.731V140.565H369.601V139.267Z" fill="#A4BBFC"/>
<path d="M372.017 135.937H358.315V137.234H372.017V135.937Z" fill="#A4BBFC"/>
<g filter="url(#filter3_d_31_4696)">
<path d="M432.976 117.308V170.3C432.976 171.34 432.563 172.338 431.828 173.074C431.093 173.81 430.095 174.225 429.053 174.228H395.623C394.578 174.228 393.576 173.815 392.837 173.079C392.097 172.342 391.68 171.343 391.677 170.3V117.308C391.68 116.265 392.097 115.266 392.837 114.529C393.576 113.793 394.578 113.38 395.623 113.38H429.053C430.095 113.383 431.093 113.798 431.828 114.534C432.563 115.27 432.976 116.268 432.976 117.308Z" fill="white"/>
</g>
<path d="M391.677 162.525H432.976V170.323C432.976 171.363 432.563 172.36 431.828 173.097C431.093 173.833 430.095 174.248 429.053 174.251H395.623C394.578 174.251 393.576 173.838 392.837 173.102C392.097 172.365 391.68 171.366 391.677 170.323V162.525Z" fill="url(#paint17_linear_31_4696)"/>
<path d="M412.326 124.256C409.639 124.254 407.011 125.047 404.775 126.536C402.539 128.026 400.796 130.143 399.766 132.621C398.736 135.1 398.465 137.827 398.988 140.459C399.511 143.091 400.804 145.509 402.704 147.407C404.604 149.305 407.024 150.598 409.66 151.123C412.296 151.647 415.028 151.379 417.512 150.353C419.995 149.327 422.117 147.588 423.611 145.357C425.104 143.126 425.901 140.503 425.901 137.82C425.903 136.039 425.553 134.276 424.871 132.63C424.19 130.985 423.19 129.489 421.929 128.23C420.669 126.97 419.172 125.971 417.524 125.289C415.876 124.607 414.11 124.256 412.326 124.256ZM412.326 148.272C410.253 148.274 408.225 147.662 406.5 146.513C404.775 145.364 403.429 143.73 402.635 141.818C401.84 139.906 401.632 137.801 402.036 135.77C402.44 133.74 403.438 131.874 404.904 130.41C406.371 128.946 408.239 127.949 410.273 127.546C412.307 127.143 414.415 127.351 416.331 128.144C418.246 128.938 419.883 130.28 421.034 132.003C422.184 133.725 422.797 135.75 422.795 137.82C422.803 139.935 422.156 142.001 420.943 143.735C419.99 145.139 418.705 146.287 417.203 147.078C415.7 147.869 414.025 148.279 412.326 148.272Z" fill="#A4BBFC"/>
<path d="M425.901 137.82C425.906 140.565 425.071 143.245 423.508 145.504L420.943 143.735C422.156 142.001 422.803 139.935 422.795 137.82C422.797 136.447 422.527 135.086 422.002 133.817C421.476 132.548 420.705 131.394 419.733 130.422C418.761 129.451 417.606 128.68 416.335 128.154C415.065 127.628 413.702 127.357 412.327 127.357V124.256C414.11 124.256 415.876 124.607 417.524 125.289C419.172 125.971 420.669 126.97 421.929 128.23C423.19 129.489 424.19 130.985 424.871 132.63C425.553 134.276 425.903 136.039 425.901 137.82Z" fill="url(#paint18_linear_31_4696)"/>
<path d="M416.767 139.267H407.897V140.565H416.767V139.267Z" fill="#A4BBFC"/>
<path d="M419.183 135.937H405.482V137.234H419.183V135.937Z" fill="#A4BBFC"/>
<g filter="url(#filter4_d_31_4696)">
<path d="M480.143 117.308V170.3C480.143 171.342 479.728 172.341 478.99 173.078C478.252 173.815 477.252 174.228 476.208 174.228H442.847C441.803 174.228 440.802 173.815 440.065 173.078C439.327 172.341 438.912 171.342 438.912 170.3V117.308C438.911 116.791 439.012 116.28 439.209 115.803C439.406 115.325 439.696 114.892 440.061 114.527C440.427 114.162 440.861 113.872 441.339 113.676C441.817 113.479 442.33 113.378 442.847 113.38H476.208C477.252 113.38 478.252 113.793 478.99 114.53C479.728 115.267 480.143 116.266 480.143 117.308Z" fill="url(#paint19_linear_31_4696)"/>
</g>
<g filter="url(#filter5_d_31_4696)">
<path d="M496.869 96.1058V160.94C496.866 162.217 496.356 163.441 495.45 164.343C494.544 165.246 493.317 165.752 492.038 165.752H451.153C449.874 165.752 448.648 165.245 447.744 164.343C446.84 163.44 446.332 162.216 446.332 160.94V96.1058C446.332 95.4744 446.457 94.8492 446.7 94.266C446.942 93.6828 447.297 93.153 447.745 92.7071C448.193 92.2611 448.724 91.9077 449.309 91.6671C449.894 91.4266 450.52 91.3035 451.153 91.305H492.038C492.671 91.3035 493.298 91.4265 493.883 91.6669C494.469 91.9074 495.001 92.2606 495.45 92.7064C495.898 93.1522 496.255 93.6818 496.498 94.2651C496.742 94.8484 496.868 95.4739 496.869 96.1058Z" fill="white"/>
</g>
<path d="M496.869 151.396V160.94C496.866 162.217 496.356 163.441 495.45 164.343C494.544 165.246 493.317 165.752 492.038 165.752H451.153C449.874 165.752 448.648 165.245 447.744 164.343C446.84 163.44 446.332 162.216 446.332 160.94V151.396H496.869Z" fill="url(#paint20_linear_31_4696)"/>
<path d="M471.595 104.616C467.194 104.616 462.974 106.361 459.861 109.467C456.748 112.572 454.998 116.785 454.995 121.178V121.304C455.02 124.58 456.016 127.774 457.857 130.485C459.698 133.196 462.301 135.302 465.339 136.537C468.378 137.773 471.714 138.083 474.929 137.428C478.143 136.773 481.091 135.182 483.401 132.857C485.711 130.531 487.28 127.575 487.909 124.36C488.539 121.146 488.201 117.818 486.938 114.795C485.675 111.772 483.544 109.19 480.814 107.374C478.083 105.559 474.876 104.591 471.595 104.593V104.616ZM482.144 128.448C480.6 130.689 478.38 132.38 475.808 133.275C473.235 134.17 470.443 134.223 467.838 133.425C465.234 132.627 462.952 131.02 461.325 128.838C459.698 126.656 458.81 124.013 458.791 121.293V121.178C458.792 119.175 459.264 117.2 460.169 115.412C461.075 113.624 462.388 112.074 464.004 110.886C465.62 109.699 467.493 108.907 469.472 108.575C471.45 108.242 473.48 108.379 475.396 108.974C477.312 109.568 479.061 110.604 480.503 111.998C481.944 113.391 483.037 115.104 483.694 116.997C484.351 118.89 484.553 120.91 484.283 122.895C484.014 124.881 483.281 126.775 482.144 128.425V128.448Z" fill="#A4BBFC"/>
<path d="M488.207 121.178C488.111 125.501 486.327 129.615 483.237 132.644C480.146 135.673 475.993 137.378 471.663 137.394C467.332 137.41 463.166 135.738 460.052 132.732C456.939 129.727 455.124 125.626 454.995 121.304H458.791C458.812 123.828 459.58 126.289 460.999 128.378C462.418 130.466 464.425 132.089 466.767 133.04C469.108 133.992 471.679 134.231 474.156 133.726C476.633 133.221 478.905 131.995 480.685 130.204C482.465 128.412 483.674 126.134 484.16 123.657C484.646 121.18 484.386 118.615 483.414 116.286C482.442 113.956 480.801 111.965 478.698 110.565C476.594 109.165 474.123 108.418 471.595 108.418V104.628C475.996 104.625 480.218 106.366 483.333 109.47C486.448 112.573 488.201 116.785 488.207 121.178Z" fill="url(#paint21_linear_31_4696)"/>
<path d="M477.025 122.97H466.177V124.555H477.025V122.97Z" fill="#A4BBFC"/>
<path d="M479.993 118.893H463.22V120.477H479.993V118.893Z" fill="#A4BBFC"/>
<g style="mix-blend-mode:multiply" filter="url(#filter6_d_31_4696)">
<path d="M474.08 187.287H350.596C347.242 187.287 344.522 190.002 344.522 193.351V229.001C344.522 232.351 347.242 235.066 350.596 235.066H474.08C477.435 235.066 480.154 232.351 480.154 229.001V193.351C480.154 190.002 477.435 187.287 474.08 187.287Z" fill="url(#paint22_linear_31_4696)" style="mix-blend-mode:multiply"/>
</g>
<path d="M396.129 191.468H394.864V229.863H396.129V191.468Z" fill="white"/>
<path d="M434.046 202.941H409.336C408.829 202.941 408.326 202.842 407.858 202.647C407.39 202.453 406.964 202.169 406.606 201.81C406.248 201.452 405.965 201.026 405.772 200.558C405.579 200.09 405.48 199.589 405.482 199.082C405.482 198.062 405.888 197.083 406.61 196.362C407.333 195.64 408.313 195.235 409.336 195.235H434.046C435.069 195.235 436.051 195.64 436.775 196.361C437.5 197.082 437.908 198.061 437.911 199.082C437.911 200.106 437.504 201.087 436.779 201.811C436.054 202.535 435.071 202.941 434.046 202.941Z" fill="url(#paint23_linear_31_4696)"/>
<path d="M439.418 210.671H405.482V212.934H439.418V210.671Z" fill="#A4BBFC"/>
<path d="M460.551 217.286H405.482V219.549H460.551V217.286Z" fill="#A4BBFC"/>
<path d="M381.645 195.315H356.302C354.51 195.315 353.058 196.765 353.058 198.554V223.856C353.058 225.645 354.51 227.095 356.302 227.095H381.645C383.437 227.095 384.89 225.645 384.89 223.856V198.554C384.89 196.765 383.437 195.315 381.645 195.315Z" fill="white"/>
<path d="M378.378 211.199C378.378 213.057 377.826 214.874 376.792 216.419C375.758 217.964 374.289 219.168 372.569 219.879C370.85 220.59 368.958 220.776 367.132 220.414C365.307 220.051 363.63 219.156 362.314 217.842C360.998 216.529 360.102 214.855 359.739 213.032C359.375 211.21 359.562 209.321 360.274 207.604C360.986 205.887 362.192 204.42 363.74 203.388C365.287 202.355 367.107 201.804 368.968 201.804V211.199H378.378Z" fill="#A4BBFC"/>
<path d="M380.081 211.199H368.968V200.116C370.427 200.115 371.872 200.4 373.22 200.956C374.568 201.513 375.793 202.329 376.825 203.358C377.857 204.388 378.676 205.61 379.235 206.955C379.793 208.301 380.081 209.743 380.081 211.199Z" fill="url(#paint24_linear_31_4696)"/>
<path style="mix-blend-mode:multiply" d="M218.611 75.5818H156.834C151.434 75.5818 147.056 79.9526 147.056 85.3442V180.488C147.056 185.879 151.434 190.25 156.834 190.25H218.611C224.011 190.25 228.389 185.879 228.389 180.488V85.3442C228.389 79.9526 224.011 75.5818 218.611 75.5818Z" fill="url(#paint25_linear_31_4696)"/>
<path d="M203.172 158.942H172.273C171.167 158.942 170.107 158.504 169.324 157.724C168.541 156.945 168.1 155.888 168.097 154.784C168.097 153.678 168.537 152.618 169.32 151.836C170.103 151.054 171.165 150.615 172.273 150.615H203.172C203.72 150.615 204.263 150.723 204.769 150.932C205.275 151.142 205.734 151.449 206.121 151.837C206.508 152.224 206.814 152.683 207.023 153.189C207.232 153.695 207.338 154.237 207.337 154.784C207.337 155.887 206.898 156.944 206.117 157.724C205.336 158.503 204.277 158.942 203.172 158.942Z" fill="url(#paint26_linear_31_4696)"/>
<path d="M214.446 89.5363H160.999C159.055 89.5363 157.479 91.1098 157.479 93.0508V139.072C157.479 141.013 159.055 142.587 160.999 142.587H214.446C216.391 142.587 217.967 141.013 217.967 139.072V93.0508C217.967 91.1098 216.391 89.5363 214.446 89.5363Z" fill="url(#paint27_linear_31_4696)"/>
<path d="M198.214 126.528C204.01 120.742 204.01 111.361 198.214 105.575C192.419 99.7894 183.022 99.7894 177.227 105.575C171.432 111.361 171.432 120.742 177.227 126.528C183.022 132.314 192.419 132.314 198.214 126.528Z" fill="white"/>
<path d="M193.969 117.25L185.318 122.66C185.109 122.792 184.868 122.866 184.62 122.875C184.372 122.883 184.127 122.827 183.908 122.71C183.69 122.593 183.506 122.421 183.376 122.21C183.246 122 183.174 121.758 183.167 121.511V110.692C183.174 110.445 183.246 110.204 183.376 109.993C183.506 109.782 183.69 109.61 183.908 109.493C184.127 109.377 184.372 109.32 184.62 109.329C184.868 109.338 185.109 109.412 185.318 109.544L193.969 114.953C194.154 115.082 194.306 115.254 194.41 115.454C194.514 115.654 194.569 115.876 194.569 116.102C194.569 116.327 194.514 116.549 194.41 116.749C194.306 116.949 194.154 117.121 193.969 117.25Z" fill="url(#paint28_linear_31_4696)"/>
<g style="mix-blend-mode:screen" opacity="0.53">
<path d="M204.887 165.833H170.547V169.198H204.887V165.833Z" fill="#BEABFB"/>
<path d="M213.515 173.195H161.931V176.56H213.515V173.195Z" fill="#BEABFB"/>
</g>
<path style="mix-blend-mode:multiply" d="M410.083 13.5156H333.95C329.433 13.5156 325.771 17.1716 325.771 21.6816V76.0067C325.771 80.5166 329.433 84.1727 333.95 84.1727H410.083C414.601 84.1727 418.263 80.5166 418.263 76.0067V21.6816C418.263 17.1716 414.601 13.5156 410.083 13.5156Z" fill="url(#paint29_linear_31_4696)"/>
<path d="M385.649 37.669C385.649 40.3635 384.848 42.9976 383.349 45.2379C381.849 47.4782 379.717 49.224 377.224 50.2547C374.73 51.2853 371.986 51.5544 369.339 51.0279C366.692 50.5014 364.261 49.2029 362.353 47.2968C360.446 45.3906 359.147 42.9624 358.622 40.3194C358.097 37.6763 358.369 34.9371 359.403 32.4483C360.438 29.9595 362.188 27.8329 364.433 26.3375C366.679 24.8422 369.318 24.0452 372.017 24.0475C373.809 24.0445 375.584 24.3948 377.24 25.0784C378.896 25.762 380.4 26.7655 381.667 28.0311C382.933 29.2967 383.937 30.7996 384.621 32.4536C385.304 34.1075 385.653 35.8799 385.649 37.669Z" fill="url(#paint30_linear_31_4696)"/>
<path d="M376.526 32.4892C376.526 33.3733 376.263 34.2375 375.771 34.9725C375.279 35.7075 374.579 36.2801 373.761 36.6179C372.942 36.9557 372.042 37.0435 371.174 36.8702C370.305 36.6969 369.508 36.2702 368.883 35.6443C368.257 35.0183 367.832 34.2211 367.661 33.3537C367.489 32.4863 367.579 31.5876 367.92 30.7714C368.26 29.9553 368.836 29.2583 369.573 28.7688C370.311 28.2792 371.177 28.0191 372.062 28.0214C372.65 28.0214 373.231 28.1371 373.773 28.3617C374.316 28.5864 374.808 28.9157 375.223 29.3307C375.637 29.7457 375.966 30.2383 376.19 30.7803C376.413 31.3223 376.528 31.903 376.526 32.4892Z" fill="#F5F7F9"/>
<path d="M381.427 47.5233C378.894 49.9404 375.526 51.2894 372.022 51.2894C368.519 51.2894 365.15 49.9404 362.618 47.5233C363.17 45.454 364.391 43.6248 366.092 42.3199C367.792 41.015 369.877 40.3076 372.022 40.3076C374.167 40.3076 376.252 41.015 377.953 42.3199C379.653 43.6248 380.875 45.454 381.427 47.5233Z" fill="#F5F7F9"/>
<path d="M346.616 62.0062L347.651 64.108C347.693 64.1948 347.756 64.2698 347.834 64.326C347.913 64.3822 348.004 64.4178 348.1 64.4296L350.4 64.7626C350.511 64.7796 350.614 64.8271 350.699 64.8997C350.784 64.9724 350.847 65.0673 350.88 65.1737C350.914 65.2801 350.917 65.3937 350.889 65.5017C350.861 65.6097 350.803 65.7078 350.723 65.7848L349.055 67.4157C348.983 67.4844 348.93 67.5697 348.9 67.6639C348.87 67.7581 348.864 67.8583 348.882 67.9555L349.273 70.2526C349.293 70.3634 349.282 70.4777 349.24 70.5823C349.198 70.6868 349.127 70.7774 349.035 70.8434C348.944 70.9095 348.836 70.9484 348.723 70.9556C348.61 70.9628 348.498 70.9381 348.399 70.8843L346.328 69.7357C346.243 69.6905 346.148 69.6668 346.052 69.6668C345.956 69.6668 345.861 69.6905 345.776 69.7357L343.694 70.8843C343.595 70.9349 343.484 70.957 343.373 70.9482C343.262 70.9395 343.156 70.9001 343.067 70.8345C342.977 70.7689 342.908 70.6798 342.866 70.577C342.824 70.4742 342.812 70.3619 342.831 70.2526L343.222 67.9555C343.24 67.8583 343.234 67.7581 343.204 67.6639C343.174 67.5697 343.121 67.4844 343.049 67.4157L341.37 65.7848C341.293 65.7053 341.239 65.6064 341.214 65.4987C341.19 65.391 341.195 65.2787 341.229 65.1736C341.263 65.0686 341.326 64.9748 341.409 64.9024C341.493 64.83 341.594 64.7817 341.703 64.7626L344.004 64.4296C344.099 64.4159 344.19 64.3795 344.268 64.3235C344.346 64.2676 344.41 64.1936 344.453 64.108L345.488 62.0062C345.53 61.8899 345.606 61.7893 345.707 61.7182C345.808 61.6471 345.928 61.6089 346.052 61.6089C346.176 61.6089 346.296 61.6471 346.397 61.7182C346.498 61.7893 346.574 61.8899 346.616 62.0062Z" fill="url(#paint31_linear_31_4696)"/>
<path d="M359.845 62.0062L360.892 64.108C360.934 64.1949 360.997 64.2699 361.075 64.3261C361.154 64.3823 361.245 64.4179 361.341 64.4296L363.642 64.7627C363.753 64.7779 363.858 64.8241 363.944 64.896C364.03 64.9679 364.095 65.0627 364.129 65.1693C364.164 65.276 364.168 65.3904 364.141 65.4992C364.114 65.6081 364.056 65.7071 363.975 65.7848L362.296 67.4157C362.226 67.4856 362.174 67.571 362.144 67.6648C362.114 67.7587 362.107 67.8584 362.123 67.9556L362.526 70.2526C362.546 70.3635 362.535 70.4777 362.492 70.5823C362.45 70.6868 362.38 70.7774 362.288 70.8434C362.197 70.9095 362.088 70.9484 361.976 70.9556C361.863 70.9628 361.751 70.9381 361.652 70.8843L359.581 69.7358C359.494 69.6905 359.397 69.6668 359.299 69.6668C359.201 69.6668 359.104 69.6905 359.017 69.7358L356.946 70.8843C356.848 70.9349 356.737 70.9571 356.626 70.9483C356.515 70.9395 356.409 70.9001 356.32 70.8345C356.23 70.7689 356.161 70.6798 356.119 70.577C356.077 70.4742 356.065 70.3619 356.084 70.2526L356.475 67.9556C356.491 67.8584 356.484 67.7587 356.454 67.6648C356.424 67.571 356.372 67.4856 356.302 67.4157L354.669 65.7848C354.588 65.7071 354.53 65.6081 354.503 65.4992C354.476 65.3904 354.48 65.276 354.515 65.1693C354.549 65.0627 354.614 64.9679 354.7 64.896C354.786 64.8241 354.891 64.7779 355.002 64.7627L357.303 64.4296C357.398 64.4159 357.489 64.3796 357.567 64.3236C357.645 64.2676 357.708 64.1936 357.752 64.108L358.787 62.0062C358.838 61.91 358.914 61.8295 359.007 61.7733C359.1 61.7172 359.207 61.6875 359.316 61.6875C359.425 61.6875 359.532 61.7172 359.625 61.7733C359.719 61.8295 359.795 61.91 359.845 62.0062Z" fill="url(#paint32_linear_31_4696)"/>
<path d="M372.58 62.0062L373.616 64.108C373.661 64.1945 373.726 64.2689 373.806 64.3248C373.887 64.3808 373.979 64.4167 374.076 64.4296L376.377 64.7626C376.488 64.7778 376.593 64.8241 376.679 64.896C376.765 64.9679 376.829 65.0626 376.864 65.1693C376.899 65.276 376.903 65.3903 376.876 65.4992C376.849 65.608 376.791 65.707 376.71 65.7848L375.031 67.4157C374.961 67.4855 374.909 67.5709 374.879 67.6648C374.849 67.7587 374.842 67.8583 374.858 67.9555L375.261 70.2526C375.281 70.3634 375.269 70.4777 375.227 70.5823C375.185 70.6868 375.114 70.7774 375.023 70.8434C374.932 70.9095 374.823 70.9484 374.711 70.9556C374.598 70.9628 374.486 70.9381 374.386 70.8843L372.316 69.7357C372.229 69.6904 372.132 69.6668 372.034 69.6668C371.936 69.6668 371.839 69.6904 371.752 69.7357L369.681 70.8843C369.582 70.9381 369.47 70.9628 369.357 70.9556C369.245 70.9484 369.136 70.9095 369.045 70.8434C368.953 70.7774 368.883 70.6868 368.84 70.5823C368.798 70.4777 368.787 70.3634 368.807 70.2526L369.21 67.9555C369.226 67.8583 369.219 67.7587 369.189 67.6648C369.159 67.5709 369.107 67.4855 369.037 67.4157L367.323 65.7848C367.242 65.707 367.185 65.608 367.157 65.4992C367.13 65.3903 367.134 65.276 367.169 65.1693C367.204 65.0626 367.268 64.9679 367.354 64.896C367.44 64.8241 367.545 64.7778 367.657 64.7626L369.957 64.4296C370.054 64.4167 370.147 64.3808 370.227 64.3248C370.307 64.2689 370.372 64.1945 370.418 64.108L371.453 62.0062C371.494 61.8899 371.571 61.7893 371.672 61.7182C371.773 61.6471 371.893 61.6089 372.017 61.6089C372.14 61.6089 372.261 61.6471 372.362 61.7182C372.463 61.7893 372.539 61.8899 372.58 62.0062Z" fill="url(#paint33_linear_31_4696)"/>
<path d="M385.81 62.0062L386.845 64.108C386.889 64.1936 386.952 64.2676 387.03 64.3236C387.108 64.3795 387.199 64.4159 387.294 64.4296L389.595 64.7627C389.706 64.7779 389.811 64.8241 389.897 64.896C389.983 64.9679 390.048 65.0627 390.082 65.1693C390.117 65.276 390.121 65.3904 390.094 65.4992C390.067 65.6081 390.009 65.7071 389.928 65.7848L388.249 67.4157C388.179 67.4856 388.127 67.571 388.097 67.6648C388.067 67.7587 388.06 67.8584 388.076 67.9555L388.467 70.2526C388.486 70.3619 388.474 70.4742 388.432 70.577C388.39 70.6798 388.321 70.7689 388.231 70.8345C388.142 70.9001 388.036 70.9395 387.925 70.9483C387.814 70.9571 387.703 70.9349 387.605 70.8843L385.522 69.7358C385.437 69.6905 385.343 69.6668 385.246 69.6668C385.15 69.6668 385.055 69.6905 384.97 69.7358L382.899 70.8843C382.8 70.9381 382.688 70.9628 382.575 70.9556C382.463 70.9484 382.354 70.9095 382.263 70.8434C382.171 70.7774 382.101 70.6868 382.059 70.5823C382.017 70.4777 382.005 70.3634 382.025 70.2526L382.428 67.9555C382.441 67.8584 382.433 67.7595 382.403 67.666C382.373 67.5726 382.323 67.4871 382.255 67.4157L380.576 65.7848C380.495 65.7071 380.437 65.6081 380.41 65.4992C380.383 65.3904 380.387 65.276 380.422 65.1693C380.456 65.0627 380.521 64.9679 380.607 64.896C380.693 64.8241 380.798 64.7779 380.909 64.7627L383.21 64.4296C383.306 64.4179 383.397 64.3823 383.476 64.3261C383.554 64.2699 383.617 64.1949 383.659 64.108L384.706 62.0062C384.751 61.8974 384.828 61.8044 384.926 61.739C385.024 61.6736 385.14 61.6387 385.258 61.6387C385.376 61.6387 385.491 61.6736 385.59 61.739C385.688 61.8044 385.765 61.8974 385.81 62.0062Z" fill="url(#paint34_linear_31_4696)"/>
<path d="M398.487 62.0062L399.534 64.108C399.576 64.1949 399.639 64.2699 399.717 64.3261C399.796 64.3823 399.887 64.4179 399.983 64.4296L402.284 64.7627C402.395 64.7779 402.5 64.8241 402.586 64.896C402.672 64.9679 402.737 65.0627 402.771 65.1693C402.806 65.276 402.81 65.3904 402.783 65.4992C402.756 65.6081 402.698 65.7071 402.617 65.7848L400.938 67.4157C400.868 67.4856 400.816 67.571 400.786 67.6648C400.756 67.7587 400.749 67.8584 400.765 67.9555L401.168 70.2526C401.188 70.3634 401.176 70.4777 401.134 70.5823C401.092 70.6868 401.021 70.7774 400.93 70.8434C400.838 70.9095 400.73 70.9484 400.618 70.9556C400.505 70.9628 400.393 70.9381 400.293 70.8843L398.223 69.7358C398.136 69.6905 398.039 69.6668 397.941 69.6668C397.843 69.6668 397.746 69.6905 397.659 69.7358L395.588 70.8843C395.489 70.9349 395.378 70.9571 395.268 70.9483C395.157 70.9395 395.051 70.9001 394.961 70.8345C394.872 70.7689 394.802 70.6798 394.761 70.577C394.719 70.4742 394.707 70.3619 394.725 70.2526L395.117 67.9555C395.133 67.8584 395.126 67.7587 395.096 67.6648C395.066 67.571 395.014 67.4856 394.944 67.4157L393.264 65.7848C393.183 65.7071 393.126 65.6081 393.099 65.4992C393.072 65.3904 393.076 65.276 393.11 65.1693C393.145 65.0627 393.209 64.9679 393.296 64.896C393.382 64.8241 393.487 64.7779 393.598 64.7627L395.899 64.4296C395.994 64.4159 396.085 64.3795 396.163 64.3236C396.241 64.2676 396.304 64.1936 396.348 64.108L397.383 62.0062C397.428 61.8974 397.505 61.8044 397.603 61.739C397.702 61.6736 397.817 61.6387 397.935 61.6387C398.053 61.6387 398.169 61.6736 398.267 61.739C398.365 61.8044 398.442 61.8974 398.487 62.0062Z" fill="url(#paint35_linear_31_4696)"/>
<g style="mix-blend-mode:multiply" filter="url(#filter7_d_31_4696)">
<path d="M401.904 268.981H244.506C238.699 268.981 233.992 273.681 233.992 279.479V318.942C233.992 324.74 238.699 329.44 244.506 329.44H401.904C407.711 329.44 412.419 324.74 412.419 318.942V279.479C412.419 273.681 407.711 268.981 401.904 268.981Z" fill="url(#paint36_linear_31_4696)" style="mix-blend-mode:multiply"/>
</g>
<g filter="url(#filter8_d_31_4696)">
<path d="M279.306 279.927H256.804C252.274 279.927 248.602 283.593 248.602 288.116V310.581C248.602 315.104 252.274 318.77 256.804 318.77H279.306C283.836 318.77 287.508 315.104 287.508 310.581V288.116C287.508 283.593 283.836 279.927 279.306 279.927Z" fill="url(#paint37_linear_31_4696)"/>
</g>
<path d="M277.649 297.66L268.446 289.62C268.35 289.538 268.228 289.493 268.101 289.493C267.974 289.493 267.852 289.538 267.756 289.62L258.553 297.66C258.471 297.733 258.414 297.828 258.388 297.934C258.362 298.04 258.369 298.151 258.408 298.253C258.446 298.355 258.515 298.443 258.604 298.505C258.694 298.567 258.8 298.601 258.909 298.602H260.888C261.028 298.602 261.163 298.658 261.262 298.757C261.361 298.856 261.417 298.99 261.417 299.13V308.628C261.417 308.769 261.473 308.903 261.572 309.002C261.671 309.101 261.806 309.157 261.946 309.157H265.524C265.594 309.158 265.664 309.146 265.728 309.12C265.793 309.094 265.852 309.055 265.902 309.006C265.951 308.956 265.99 308.897 266.016 308.832C266.042 308.768 266.055 308.698 266.053 308.628V304.54C266.056 304.399 266.115 304.264 266.216 304.165C266.317 304.067 266.453 304.011 266.594 304.011H269.689C269.83 304.011 269.966 304.067 270.067 304.165C270.168 304.264 270.226 304.399 270.229 304.54V308.628C270.228 308.698 270.24 308.768 270.266 308.832C270.292 308.897 270.331 308.956 270.381 309.006C270.43 309.055 270.489 309.094 270.554 309.12C270.619 309.146 270.688 309.158 270.758 309.157H274.348C274.488 309.157 274.623 309.101 274.722 309.002C274.821 308.903 274.877 308.769 274.877 308.628V299.13C274.877 298.99 274.933 298.856 275.032 298.757C275.131 298.658 275.266 298.602 275.406 298.602H277.385C277.486 298.585 277.581 298.54 277.657 298.471C277.734 298.403 277.789 298.314 277.817 298.215C277.845 298.116 277.844 298.011 277.814 297.913C277.784 297.815 277.727 297.727 277.649 297.66Z" fill="white"/>
<g filter="url(#filter9_d_31_4696)">
<path d="M332.27 279.927H309.768C305.238 279.927 301.566 283.593 301.566 288.116V310.581C301.566 315.104 305.238 318.77 309.768 318.77H332.27C336.8 318.77 340.473 315.104 340.473 310.581V288.116C340.473 283.593 336.8 279.927 332.27 279.927Z" fill="url(#paint38_linear_31_4696)"/>
</g>
<path d="M321.031 288.357C319.249 288.357 317.54 289.064 316.28 290.322C315.02 291.579 314.313 293.286 314.313 295.064C314.313 299.061 317.706 305.884 319.673 309.513C319.805 309.763 320.003 309.972 320.245 310.119C320.487 310.265 320.765 310.342 321.048 310.342C321.331 310.342 321.609 310.265 321.851 310.119C322.094 309.972 322.291 309.763 322.423 309.513C324.39 305.929 327.726 299.176 327.726 295.064C327.729 294.185 327.558 293.313 327.223 292.499C326.888 291.686 326.395 290.946 325.773 290.323C325.151 289.7 324.412 289.205 323.598 288.868C322.785 288.531 321.912 288.357 321.031 288.357ZM321.031 298.602C320.377 298.604 319.737 298.412 319.192 298.051C318.648 297.69 318.223 297.175 317.971 296.572C317.72 295.97 317.654 295.306 317.781 294.665C317.908 294.025 318.222 293.437 318.685 292.975C319.147 292.513 319.737 292.199 320.378 292.072C321.02 291.945 321.684 292.012 322.288 292.262C322.892 292.513 323.408 292.938 323.769 293.481C324.131 294.025 324.323 294.664 324.321 295.317C324.323 295.749 324.239 296.177 324.074 296.576C323.909 296.975 323.667 297.338 323.361 297.643C323.055 297.948 322.692 298.19 322.292 298.355C321.892 298.519 321.463 298.603 321.031 298.602Z" fill="white"/>
<g filter="url(#filter10_d_31_4696)">
<path d="M386.488 279.927H363.987C359.457 279.927 355.784 283.593 355.784 288.116V310.581C355.784 315.104 359.457 318.77 363.987 318.77H386.488C391.018 318.77 394.691 315.104 394.691 310.581V288.116C394.691 283.593 391.018 279.927 386.488 279.927Z" fill="url(#paint39_linear_31_4696)"/>
</g>
<path d="M375.456 291.251C376.182 289.669 377.328 288.314 378.769 287.335C379.057 287.15 379.379 287.025 379.716 286.969C380.053 286.913 380.398 286.926 380.73 287.008C381.061 287.09 381.373 287.238 381.645 287.445C381.917 287.651 382.145 287.911 382.313 288.208L383.555 290.401C384.558 292.153 385.129 294.117 385.221 296.132C385.313 298.147 384.923 300.155 384.084 301.99C383.343 303.598 382.358 305.082 381.162 306.389C379.492 308.169 377.332 309.416 374.954 309.976C372.576 310.536 370.086 310.383 367.795 309.536L367.277 309.352C366.813 309.188 366.397 308.914 366.062 308.554C365.727 308.195 365.483 307.76 365.352 307.287C365.221 306.813 365.207 306.316 365.309 305.835C365.412 305.355 365.629 304.907 365.942 304.528C366.501 303.862 367.152 303.278 367.875 302.794C368.297 302.502 368.805 302.358 369.318 302.388C369.831 302.417 370.319 302.616 370.705 302.955L371.752 303.908C372.228 304.34 372.836 304.597 373.478 304.639C374.119 304.681 374.756 304.504 375.284 304.138C377.286 302.885 378.79 300.977 379.54 298.74C379.714 298.16 379.696 297.539 379.489 296.97C379.282 296.401 378.896 295.914 378.39 295.581L376.377 294.283C375.873 293.983 375.499 293.506 375.329 292.945C375.159 292.384 375.204 291.78 375.456 291.251Z" fill="white"/>
<path style="mix-blend-mode:multiply" d="M570.771 54.805H523.03C520.285 54.805 518.06 57.0263 518.06 59.7666V91.661C518.06 94.4013 520.285 96.6227 523.03 96.6227H570.771C573.516 96.6227 575.741 94.4013 575.741 91.661V59.7666C575.741 57.0263 573.516 54.805 570.771 54.805Z" fill="url(#paint40_linear_31_4696)"/>
<path d="M529.046 75.3291L539.664 69.954V72.9401L532.049 76.6499L539.664 80.463V83.4376L529.046 77.9822V75.3291Z" fill="#F5F7F9"/>
<path d="M542.322 84.4254L548.729 67.0597H551.49L545.094 84.4254H542.322Z" fill="#F5F7F9"/>
<path d="M564.754 78.0166L554.136 83.4032V80.4285L561.752 76.7188L554.136 72.9401V69.954L564.754 75.4095V78.0166Z" fill="#F5F7F9"/>
<path d="M492.406 158.034C492.406 158.034 487.931 158.574 488.172 159.275C488.414 159.975 492.832 159.768 493.177 159.814C493.522 159.86 496.812 161.457 496.812 161.457L492.406 158.034Z" fill="#D481A0"/>
<path d="M494.396 157.196C494.396 157.196 488.529 154.451 487.632 154.807C486.734 155.163 491.014 157.575 491.014 157.575L496.168 160.917L494.396 157.196Z" fill="#D481A0"/>
<path d="M524.387 190.721L516.334 195.775L504.83 168.555C504.83 168.555 498.365 158.781 495.742 155.519C493.119 152.257 492.049 149.857 491.198 149.995C490.347 150.132 492.233 154.864 493.361 156.633C494.488 158.402 496.352 162.594 496.352 163.88C496.352 165.167 495.282 165.431 491.302 163.478C488.253 161.985 489.737 164.627 491.302 166.085C492.302 167.039 499.676 172.023 499.676 172.023C499.676 172.023 505.256 205.583 509.604 209.798C513.953 214.013 533.073 202.367 533.073 202.367L524.387 190.721Z" fill="url(#paint41_linear_31_4696)"/>
<path d="M533.107 202.367C529.107 204.764 524.939 206.871 520.637 208.673C516.035 210.499 511.503 211.59 509.639 209.821C507.775 208.052 505.889 201.517 504.174 194.316C503.645 192.111 503.151 189.848 502.69 187.655L505.831 185.22L506.452 184.737L510.41 181.694L516.392 195.798L524.387 190.744L533.107 202.367Z" fill="url(#paint42_linear_31_4696)"/>
<path d="M463.727 176.709C463.948 175.467 463.948 174.196 463.727 172.953C463.324 171.219 463.508 169.864 463.807 169.726C464.106 169.588 464.957 171.69 465.947 174.538C466.551 176.866 466.818 179.268 466.741 181.671L463.727 176.709Z" fill="#E098B1"/>
<path d="M501.92 188.596L492.026 194.994L467.557 181.211C467.557 181.211 462.047 171.713 460.505 170.565C458.964 169.416 454.535 165.591 453.407 165.798C452.28 166.005 453.971 168.095 453.971 168.095C453.971 168.095 451.153 165.993 450.52 166.487C449.887 166.981 451.774 169.359 451.774 169.359C451.774 169.359 450.37 168.52 449.887 168.876C449.404 169.232 450.796 171.116 450.796 171.116C450.796 171.116 449.818 170.553 449.772 171.816C449.726 173.08 454.868 177.215 455.996 179.11C457.123 181.005 459.171 184.427 460.505 185.622C461.491 186.432 462.602 187.076 463.795 187.528C463.795 187.528 483.939 206.49 489.668 208.81C495.397 211.13 508.822 200.863 508.822 200.863L501.92 188.596Z" fill="url(#paint43_linear_31_4696)"/>
<path d="M501.264 189.044L505.831 202.941L508.086 201.368L501.264 189.044Z" fill="url(#paint44_linear_31_4696)"/>
<path d="M527.769 371.28L523.984 373.52L518.117 370.878L518.865 361.541H529.15L527.769 371.28Z" fill="#E098B1"/>
<path d="M528.068 382.536H502.242C501.933 382.537 501.629 382.464 501.355 382.323C501.081 382.183 500.845 381.978 500.666 381.727C500.488 381.476 500.373 381.185 500.331 380.88C500.289 380.575 500.321 380.265 500.424 379.975L500.493 379.791C500.841 378.843 501.492 378.036 502.345 377.494C504.876 375.955 517.3 370.603 517.3 370.603C517.426 369.815 517.507 369.022 517.542 368.225C517.6 367.134 518.462 367.146 518.462 367.146C518.462 367.146 519.739 370.591 522.259 371.326C524.113 371.672 526.029 371.469 527.769 370.741L528.183 368.719C529.874 370.798 530.001 376.426 530.3 379.825V380.158C530.32 380.463 530.278 380.769 530.175 381.057C530.072 381.345 529.911 381.608 529.702 381.831C529.492 382.054 529.239 382.232 528.958 382.353C528.677 382.474 528.374 382.537 528.068 382.536Z" fill="#7944D5"/>
<path d="M528.379 382.536H501.321C501.147 382.54 500.973 382.505 500.814 382.432C500.655 382.359 500.514 382.251 500.404 382.116C500.293 381.981 500.214 381.822 500.174 381.652C500.133 381.482 500.133 381.305 500.171 381.135C500.247 380.675 500.37 380.225 500.539 379.791H530.3C530.3 380.044 530.3 380.273 530.3 380.492C530.321 380.755 530.287 381.019 530.199 381.268C530.112 381.517 529.973 381.745 529.792 381.938C529.611 382.13 529.392 382.283 529.149 382.386C528.905 382.489 528.643 382.54 528.379 382.536Z" fill="#CCBCF1"/>
<path d="M515.989 375.932C515.929 375.932 515.87 375.919 515.816 375.893C515.763 375.867 515.715 375.829 515.678 375.783C514.853 374.557 513.637 373.647 512.227 373.198C512.125 373.181 512.034 373.125 511.973 373.041C511.913 372.957 511.888 372.853 511.905 372.75C511.912 372.699 511.929 372.65 511.956 372.606C511.983 372.562 512.018 372.523 512.06 372.493C512.102 372.463 512.15 372.442 512.2 372.431C512.251 372.42 512.303 372.419 512.354 372.429C513.962 372.888 515.354 373.907 516.277 375.3C516.309 375.341 516.332 375.387 516.346 375.437C516.36 375.487 516.364 375.539 516.357 375.59C516.351 375.642 516.334 375.691 516.309 375.736C516.283 375.781 516.249 375.82 516.208 375.851C516.145 375.9 516.069 375.929 515.989 375.932Z" fill="#CCBCF1"/>
<path d="M520.107 374.577C520.005 374.573 519.906 374.532 519.831 374.462C517.082 371.774 514.977 371.889 514.942 371.889C514.852 371.885 514.765 371.849 514.698 371.788C514.631 371.728 514.587 371.646 514.574 371.556C514.569 371.505 514.575 371.454 514.59 371.406C514.606 371.357 514.631 371.312 514.664 371.274C514.698 371.235 514.738 371.204 514.784 371.181C514.83 371.159 514.88 371.145 514.931 371.143C515.023 371.143 517.393 370.97 520.43 373.933C520.503 374.007 520.544 374.106 520.544 374.209C520.544 374.312 520.503 374.412 520.43 374.485C520.385 374.522 520.334 374.549 520.278 374.565C520.223 374.58 520.165 374.585 520.107 374.577Z" fill="#CCBCF1"/>
<path d="M553.193 232.941C554.728 238.375 555.563 243.983 555.678 249.629C555.678 258.048 536.949 317.139 536.949 317.139L531.324 365.021H516.714C516.714 365.021 517.864 313.027 519.337 302.553C520.809 292.078 528.379 232.941 528.379 232.941H553.193Z" fill="url(#paint45_linear_31_4696)"/>
<path style="mix-blend-mode:multiply" opacity="0.5" d="M553.193 232.941C554.728 238.375 555.563 243.983 555.678 249.629C555.678 258.048 536.949 317.139 536.949 317.139L531.324 365.021H516.714C516.714 365.021 517.864 313.027 519.337 302.553C520.809 292.078 528.379 232.941 528.379 232.941H553.193Z" fill="url(#paint46_linear_31_4696)"/>
<path d="M556.15 371.28L552.353 373.52L547.384 371.28L545.025 361.541H555.229L556.15 371.28Z" fill="#E9A8BC"/>
<path d="M556.437 382.536H530.611C530.303 382.535 530 382.46 529.728 382.318C529.455 382.177 529.22 381.972 529.042 381.722C528.864 381.471 528.749 381.182 528.706 380.878C528.662 380.575 528.692 380.265 528.793 379.975L528.862 379.791C529.21 378.843 529.861 378.036 530.714 377.494C533.245 375.955 545.669 370.603 545.669 370.603C545.669 370.603 545.451 369.259 545.393 368.248C545.336 367.238 546.682 367.1 546.682 367.1C546.682 367.1 548.108 370.545 550.628 371.28C552.482 371.626 554.398 371.423 556.138 370.695L555.942 368.673C557.633 370.752 558.37 376.38 558.669 379.779V380.113C558.696 380.421 558.658 380.732 558.559 381.025C558.459 381.319 558.299 381.588 558.088 381.816C557.878 382.044 557.623 382.226 557.339 382.35C557.054 382.474 556.747 382.537 556.437 382.536Z" fill="#9055EA"/>
<path d="M556.794 382.536H529.69C529.519 382.528 529.352 382.485 529.199 382.408C529.046 382.332 528.911 382.224 528.802 382.091C528.694 381.959 528.614 381.806 528.569 381.641C528.524 381.476 528.514 381.304 528.54 381.135C528.616 380.675 528.739 380.225 528.908 379.791H558.669C558.669 380.044 558.669 380.273 558.738 380.492C558.757 380.756 558.721 381.022 558.631 381.272C558.542 381.522 558.401 381.75 558.218 381.943C558.035 382.135 557.814 382.287 557.569 382.389C557.323 382.491 557.059 382.541 556.794 382.536Z" fill="#E6DAFD"/>
<path d="M543.334 376.15C543.274 376.148 543.214 376.133 543.16 376.105C543.107 376.077 543.06 376.038 543.023 375.989C542.208 374.757 540.987 373.847 539.572 373.417C539.482 373.385 539.407 373.322 539.359 373.24C539.311 373.158 539.293 373.061 539.31 372.968C539.326 372.874 539.376 372.789 539.449 372.728C539.522 372.668 539.615 372.635 539.71 372.636C541.321 373.097 542.713 374.12 543.633 375.518C543.694 375.603 543.719 375.707 543.704 375.81C543.689 375.913 543.635 376.006 543.553 376.07C543.488 376.116 543.413 376.144 543.334 376.15Z" fill="#E6DAFD"/>
<path d="M547.43 374.806C547.326 374.806 547.227 374.765 547.154 374.692C544.404 372.004 542.299 372.119 542.276 372.119C542.224 372.124 542.173 372.118 542.123 372.103C542.074 372.087 542.028 372.062 541.989 372.029C541.949 371.996 541.917 371.956 541.893 371.91C541.869 371.864 541.855 371.814 541.85 371.763C541.844 371.66 541.877 371.558 541.943 371.479C542.01 371.4 542.104 371.349 542.207 371.338C542.31 371.338 544.669 371.166 547.706 374.129C547.764 374.183 547.805 374.253 547.822 374.331C547.84 374.408 547.833 374.489 547.803 374.563C547.773 374.637 547.721 374.7 547.654 374.743C547.588 374.787 547.509 374.809 547.43 374.806Z" fill="#E6DAFD"/>
<path d="M558.036 365.021H542C542 365.021 526.642 314.486 525.33 305.367C524.674 300.773 521.511 274.357 519.866 260.517C519.659 258.84 519.498 257.163 519.36 255.475C519.076 251.953 518.915 248.423 518.876 244.885C518.876 244.518 518.876 244.139 518.876 243.737V238.052L538.997 235.031L550.156 233.354C550.432 235.41 550.651 237.236 550.823 238.925C551.755 247.734 551.479 252.638 549.903 263.262L547.821 305.137L558.036 365.021Z" fill="url(#paint47_linear_31_4696)"/>
<path d="M550.869 365.021H550.064C549.086 361.231 540.17 326.362 538.065 316.473C535.857 306.056 530.013 240.556 529.897 239.901L530.691 239.832C530.691 240.487 536.639 305.941 538.836 316.312C541.033 326.396 550.236 362.517 550.869 365.021Z" fill="#5353C8"/>
<path style="mix-blend-mode:multiply" opacity="0.5" d="M550.812 238.959C550.812 238.959 538.157 245.552 518.876 244.885C518.876 244.518 518.876 244.139 518.876 243.737V237.994L538.997 234.985C545.462 237.179 550.812 238.959 550.812 238.959Z" fill="url(#paint48_linear_31_4696)"/>
<path d="M526.768 141.082C526.768 141.082 524.18 136.649 524.398 132.583C524.617 128.517 531.209 126.266 531.209 126.266C531.209 126.266 530.645 119.892 541.816 121.293C552.986 122.694 555.091 134.191 555.091 134.191C555.091 134.191 557.507 134.317 557.553 139.382C557.553 144.78 556.403 147.295 551.801 151.511C547.418 155.496 546.912 158.402 546.912 158.402L526.768 141.082Z" fill="url(#paint49_linear_31_4696)"/>
<path d="M549.215 149.299C554.233 144.289 554.233 136.166 549.215 131.156C544.197 126.146 536.06 126.146 531.042 131.156C526.024 136.166 526.024 144.289 531.042 149.299C536.06 154.309 544.197 154.309 549.215 149.299Z" fill="url(#paint50_linear_31_4696)"/>
<path d="M527.677 137.016C526.264 140.507 525.553 144.242 525.583 148.008C525.514 154.669 525.1 164.42 533.636 162.881L533.004 168.555H547.188L546.866 158.344L540.09 149.972C540.727 149.992 541.36 149.873 541.946 149.622C542.531 149.37 543.054 148.993 543.477 148.517C543.899 148.041 544.212 147.478 544.392 146.868C544.572 146.258 544.616 145.616 544.519 144.987C544.185 140.301 539.181 142.816 538.974 145.343L536.788 148.639C536.788 148.639 534.407 147.1 534.614 141.277L527.677 137.016Z" fill="url(#paint51_linear_31_4696)"/>
<path d="M533.671 162.881C536.256 162.438 538.733 161.502 540.964 160.125C541.009 161.2 540.838 162.274 540.462 163.283C540.086 164.292 539.512 165.216 538.774 166.001C538.036 166.786 537.149 167.416 536.164 167.855C535.179 168.293 534.116 168.531 533.038 168.555L533.671 162.881Z" fill="url(#paint52_linear_31_4696)"/>
<path d="M558.186 184.554V185.335C558.186 189.24 558.002 193.673 557.714 198.198V198.336C557.714 198.554 557.714 198.784 557.714 199.002C557.38 204.044 556.909 209.201 556.449 213.841C556.449 214.14 556.391 214.427 556.368 214.714C555.839 219.802 555.298 224.235 554.942 227.187C554.942 227.485 554.873 227.772 554.827 228.037C554.585 229.966 554.435 231.092 554.435 231.092C554.435 231.092 556.966 233.481 556.736 234.595C556.091 235.994 555.288 237.316 554.343 238.534C542.678 240.142 529.276 240.636 518.957 238.086L519.153 225.452V224.545L519.383 209.499V208.684L519.521 199.392V199.278L514.574 201.667L513.815 202.046L509.65 204.055L508.765 202.459L504.221 194.305L502.737 191.628L501.195 188.838C501.195 188.838 501.759 188.378 502.737 187.689L505.877 185.254C506.061 185.093 506.291 184.944 506.498 184.772L510.444 181.728L515.276 178.053L515.92 177.571C519.279 175.032 522.247 172.839 523.582 171.977C523.938 171.748 524.295 171.541 524.732 171.346C525.037 171.167 525.352 171.006 525.675 170.863C527.418 170.077 529.232 169.462 531.094 169.026C532.049 168.784 532.762 168.681 533.004 168.635H533.096C533.096 168.635 545.681 165.81 552.825 169.359C552.924 169.405 553.021 169.459 553.112 169.519C553.169 169.535 553.223 169.558 553.274 169.588L553.377 169.657C553.561 169.749 553.745 169.875 553.941 169.99C554.617 170.428 555.226 170.962 555.747 171.575C556.157 172.044 556.501 172.565 556.771 173.126C557.714 175.09 558.128 179.293 558.186 184.554Z" fill="url(#paint53_linear_31_4696)"/>
<g style="mix-blend-mode:screen" opacity="0.45">
<path d="M553.872 169.91C553.503 169.673 553.119 169.462 552.721 169.278C546.12 170.128 539.424 169.891 532.9 168.578C532.659 168.578 531.945 168.738 530.99 168.968C535.585 170.034 540.286 170.569 545.002 170.565C547.971 170.563 550.935 170.344 553.872 169.91Z" fill="url(#paint54_linear_31_4696)"/>
<path d="M506.452 184.714L505.831 185.197C510.239 189.792 513.019 195.701 513.746 202.023L514.494 201.644C513.699 195.284 510.875 189.348 506.441 184.714H506.452Z" fill="url(#paint55_linear_31_4696)"/>
<path d="M524.928 196.682C525.049 193.005 524.297 189.352 522.733 186.02C521.17 182.689 518.839 179.774 515.932 177.513L515.299 177.996C518.2 180.229 520.518 183.128 522.056 186.447C523.595 189.767 524.307 193.408 524.134 197.061L524.928 196.682Z" fill="url(#paint56_linear_31_4696)"/>
<path d="M534.764 183.015C534.844 183.302 534.925 183.589 534.982 183.887C535.553 186.342 535.828 188.856 535.799 191.376H536.581C536.606 188.921 536.356 186.47 535.833 184.071C540.978 185.131 546.215 185.674 551.467 185.691C553.711 185.693 555.954 185.578 558.186 185.346C558.186 185.07 558.186 184.818 558.186 184.554C550.644 185.247 543.041 184.79 535.638 183.198C534.833 179.829 533.128 176.74 530.703 174.263C529.229 172.808 527.497 171.64 525.595 170.817C525.269 170.958 524.95 171.115 524.64 171.288C526.704 172.088 528.583 173.3 530.162 174.849C532.386 177.121 533.973 179.937 534.764 183.015Z" fill="url(#paint57_linear_31_4696)"/>
<path d="M531.968 196.406C530.185 195.947 528.816 195.522 527.965 195.258L526.929 195.74C527.482 195.947 529.069 196.498 531.393 197.118C537.28 198.705 543.345 199.535 549.443 199.588C552.195 199.591 554.943 199.399 557.668 199.013C557.668 198.749 557.668 198.497 557.668 198.221C549.064 199.273 540.338 198.657 531.968 196.406Z" fill="url(#paint58_linear_31_4696)"/>
<path d="M520.257 208.983L519.452 208.753L519.302 208.696V209.522C519.521 209.603 519.739 209.66 519.958 209.718C533.303 213.657 543.737 214.886 551.571 214.886C553.274 214.886 554.861 214.886 556.322 214.725C556.322 214.427 556.38 214.14 556.414 213.841C548.292 214.438 536.432 213.726 520.257 208.983Z" fill="url(#paint59_linear_31_4696)"/>
<path d="M519.061 224.545V225.372C526.656 227.87 534.59 229.191 542.586 229.289C546.66 229.308 550.723 228.873 554.7 227.991C554.7 227.738 554.769 227.451 554.804 227.164C540.849 230.414 526.895 227.141 519.061 224.545Z" fill="url(#paint60_linear_31_4696)"/>
</g>
<path style="mix-blend-mode:multiply" opacity="0.5" d="M536.581 191.376L531.968 196.406L531.393 197.095L519.268 210.912L519.44 199.243L526.929 195.717L527.965 195.235L536.581 191.376Z" fill="url(#paint61_linear_31_4696)"/>
<path style="mix-blend-mode:screen" d="M552.756 169.278C552.855 169.325 552.952 169.379 553.043 169.439C551.536 168.75 542.126 168.601 530.611 173.172C520.556 177.169 503.185 192.524 503.185 192.524L501.149 188.838C501.149 188.838 501.713 188.378 502.69 187.689L505.831 185.254C506.015 185.093 506.245 184.944 506.452 184.772L510.398 181.728L515.23 178.053L515.874 177.571C519.233 175.032 522.201 172.839 523.536 171.977C523.892 171.748 524.249 171.541 524.686 171.346C524.991 171.167 525.306 171.006 525.629 170.863C527.372 170.077 529.186 169.462 531.048 169.026C532.003 168.784 532.716 168.681 532.957 168.635H533.049C533.049 168.635 545.635 165.729 552.756 169.278Z" fill="url(#paint62_linear_31_4696)"/>
<path d="M460.735 174.492C460.693 174.49 460.651 174.478 460.614 174.459C460.576 174.439 460.543 174.411 460.517 174.378C459.998 173.686 459.429 173.034 458.814 172.425C458.101 171.805 453.879 168.29 453.833 168.256C453.807 168.23 453.787 168.2 453.773 168.166C453.759 168.133 453.752 168.097 453.752 168.061C453.752 168.025 453.759 167.989 453.773 167.955C453.787 167.922 453.807 167.891 453.833 167.866C453.884 167.817 453.952 167.79 454.023 167.79C454.093 167.79 454.161 167.817 454.213 167.866C454.397 168.015 458.504 171.426 459.205 172.046C459.84 172.656 460.428 173.313 460.965 174.01C461.012 174.064 461.038 174.134 461.038 174.205C461.038 174.277 461.012 174.346 460.965 174.401C460.903 174.459 460.821 174.491 460.735 174.492Z" fill="#E4A2B6"/>
<path d="M458.204 175.515C458.158 175.515 458.113 175.504 458.073 175.482C458.032 175.46 457.998 175.428 457.974 175.388C457.559 174.744 457.098 174.129 456.594 173.551C455.892 172.816 451.739 169.554 451.693 169.519C451.665 169.497 451.641 169.469 451.623 169.437C451.605 169.405 451.593 169.37 451.589 169.334C451.585 169.297 451.588 169.261 451.598 169.226C451.608 169.19 451.625 169.158 451.647 169.129C451.67 169.1 451.698 169.076 451.73 169.059C451.762 169.041 451.797 169.029 451.833 169.025C451.87 169.021 451.906 169.024 451.942 169.034C451.977 169.044 452.01 169.06 452.038 169.083C452.211 169.221 456.26 172.414 456.985 173.172C457.525 173.771 458.01 174.416 458.435 175.101C458.474 175.162 458.487 175.236 458.472 175.307C458.457 175.378 458.415 175.44 458.354 175.48C458.307 175.502 458.256 175.514 458.204 175.515Z" fill="#E4A2B6"/>
<path d="M456.755 177.364C456.709 177.365 456.663 177.353 456.623 177.331C456.583 177.309 456.549 177.277 456.525 177.237C455.967 176.318 455.323 175.453 454.604 174.653L450.474 171.208C450.447 171.183 450.425 171.153 450.41 171.119C450.395 171.086 450.387 171.049 450.387 171.013C450.387 170.976 450.395 170.939 450.41 170.906C450.425 170.872 450.447 170.842 450.474 170.817C450.525 170.769 450.593 170.742 450.664 170.742C450.734 170.742 450.802 170.769 450.853 170.817C450.853 170.817 454.305 173.689 454.995 174.263C455.758 175.097 456.436 176.005 457.019 176.973C457.059 177.034 457.072 177.108 457.057 177.179C457.042 177.25 457 177.312 456.939 177.352C456.88 177.372 456.816 177.376 456.755 177.364Z" fill="#E4A2B6"/>
</g>
<defs>
<filter id="filter0_f_31_4696" x="157.882" y="357.429" width="456.292" height="53.4988" filterUnits="userSpaceOnUse" color-interpolation-filters="sRGB">
<feFlood flood-opacity="0" result="BackgroundImageFix"/>
<feBlend mode="normal" in="SourceGraphic" in2="BackgroundImageFix" result="shape"/>
<feGaussianBlur stdDeviation="7.5" result="effect1_foregroundBlur_31_4696"/>
</filter>
<filter id="filter1_d_31_4696" x="227.863" y="84.3796" width="140.916" height="185.697" filterUnits="userSpaceOnUse" color-interpolation-filters="sRGB">
<feFlood flood-opacity="0" result="BackgroundImageFix"/>
<feColorMatrix in="SourceAlpha" type="matrix" values="0 0 0 0 0 0 0 0 0 0 0 0 0 0 0 0 0 0 127 0" result="hardAlpha"/>
<feOffset dx="2" dy="3"/>
<feGaussianBlur stdDeviation="16"/>
<feColorMatrix type="matrix" values="0 0 0 0 0.313726 0 0 0 0 0.333333 0 0 0 0 0.835294 0 0 0 0.5 0"/>
<feBlend mode="normal" in2="BackgroundImageFix" result="effect1_dropShadow_31_4696"/>
<feBlend mode="normal" in="SourceGraphic" in2="effect1_dropShadow_31_4696" result="shape"/>
</filter>
<filter id="filter2_d_31_4696" x="314.568" y="84.3796" width="105.242" height="124.849" filterUnits="userSpaceOnUse" color-interpolation-filters="sRGB">
<feFlood flood-opacity="0" result="BackgroundImageFix"/>
<feColorMatrix in="SourceAlpha" type="matrix" values="0 0 0 0 0 0 0 0 0 0 0 0 0 0 0 0 0 0 127 0" result="hardAlpha"/>
<feOffset dx="2" dy="3"/>
<feGaussianBlur stdDeviation="16"/>
<feColorMatrix type="matrix" values="0 0 0 0 0.313726 0 0 0 0 0.333333 0 0 0 0 0.835294 0 0 0 0.5 0"/>
<feBlend mode="normal" in2="BackgroundImageFix" result="effect1_dropShadow_31_4696"/>
<feBlend mode="normal" in="SourceGraphic" in2="effect1_dropShadow_31_4696" result="shape"/>
</filter>
<filter id="filter3_d_31_4696" x="361.677" y="84.3796" width="105.299" height="124.849" filterUnits="userSpaceOnUse" color-interpolation-filters="sRGB">
<feFlood flood-opacity="0" result="BackgroundImageFix"/>
<feColorMatrix in="SourceAlpha" type="matrix" values="0 0 0 0 0 0 0 0 0 0 0 0 0 0 0 0 0 0 127 0" result="hardAlpha"/>
<feOffset dx="2" dy="3"/>
<feGaussianBlur stdDeviation="16"/>
<feColorMatrix type="matrix" values="0 0 0 0 0.313726 0 0 0 0 0.333333 0 0 0 0 0.835294 0 0 0 0.5 0"/>
<feBlend mode="normal" in2="BackgroundImageFix" result="effect1_dropShadow_31_4696"/>
<feBlend mode="normal" in="SourceGraphic" in2="effect1_dropShadow_31_4696" result="shape"/>
</filter>
<filter id="filter4_d_31_4696" x="388.912" y="64.3796" width="145.23" height="164.849" filterUnits="userSpaceOnUse" color-interpolation-filters="sRGB">
<feFlood flood-opacity="0" result="BackgroundImageFix"/>
<feColorMatrix in="SourceAlpha" type="matrix" values="0 0 0 0 0 0 0 0 0 0 0 0 0 0 0 0 0 0 127 0" result="hardAlpha"/>
<feOffset dx="2" dy="3"/>
<feGaussianBlur stdDeviation="26"/>
<feColorMatrix type="matrix" values="0 0 0 0 0.313726 0 0 0 0 0.333333 0 0 0 0 0.835294 0 0 0 0.4 0"/>
<feBlend mode="normal" in2="BackgroundImageFix" result="effect1_dropShadow_31_4696"/>
<feBlend mode="normal" in="SourceGraphic" in2="effect1_dropShadow_31_4696" result="shape"/>
</filter>
<filter id="filter5_d_31_4696" x="416.332" y="62.305" width="114.537" height="138.447" filterUnits="userSpaceOnUse" color-interpolation-filters="sRGB">
<feFlood flood-opacity="0" result="BackgroundImageFix"/>
<feColorMatrix in="SourceAlpha" type="matrix" values="0 0 0 0 0 0 0 0 0 0 0 0 0 0 0 0 0 0 127 0" result="hardAlpha"/>
<feOffset dx="2" dy="3"/>
<feGaussianBlur stdDeviation="16"/>
<feColorMatrix type="matrix" values="0 0 0 0 0.313726 0 0 0 0 0.333333 0 0 0 0 0.835294 0 0 0 0.5 0"/>
<feBlend mode="normal" in2="BackgroundImageFix" result="effect1_dropShadow_31_4696"/>
<feBlend mode="normal" in="SourceGraphic" in2="effect1_dropShadow_31_4696" result="shape"/>
</filter>
<filter id="filter6_d_31_4696" x="314.522" y="158.287" width="199.632" height="111.779" filterUnits="userSpaceOnUse" color-interpolation-filters="sRGB">
<feFlood flood-opacity="0" result="BackgroundImageFix"/>
<feColorMatrix in="SourceAlpha" type="matrix" values="0 0 0 0 0 0 0 0 0 0 0 0 0 0 0 0 0 0 127 0" result="hardAlpha"/>
<feOffset dx="2" dy="3"/>
<feGaussianBlur stdDeviation="16"/>
<feColorMatrix type="matrix" values="0 0 0 0 0.313726 0 0 0 0 0.333333 0 0 0 0 0.835294 0 0 0 0.5 0"/>
<feBlend mode="normal" in2="BackgroundImageFix" result="effect1_dropShadow_31_4696"/>
<feBlend mode="normal" in="SourceGraphic" in2="effect1_dropShadow_31_4696" result="shape"/>
</filter>
<filter id="filter7_d_31_4696" x="187.992" y="224.981" width="274.427" height="156.458" filterUnits="userSpaceOnUse" color-interpolation-filters="sRGB">
<feFlood flood-opacity="0" result="BackgroundImageFix"/>
<feColorMatrix in="SourceAlpha" type="matrix" values="0 0 0 0 0 0 0 0 0 0 0 0 0 0 0 0 0 0 127 0" result="hardAlpha"/>
<feOffset dx="2" dy="4"/>
<feGaussianBlur stdDeviation="24"/>
<feColorMatrix type="matrix" values="0 0 0 0 0.313726 0 0 0 0 0.333333 0 0 0 0 0.835294 0 0 0 0.5 0"/>
<feBlend mode="normal" in2="BackgroundImageFix" result="effect1_dropShadow_31_4696"/>
<feBlend mode="normal" in="SourceGraphic" in2="effect1_dropShadow_31_4696" result="shape"/>
</filter>
<filter id="filter8_d_31_4696" x="242.602" y="275.927" width="54.9065" height="54.843" filterUnits="userSpaceOnUse" color-interpolation-filters="sRGB">
<feFlood flood-opacity="0" result="BackgroundImageFix"/>
<feColorMatrix in="SourceAlpha" type="matrix" values="0 0 0 0 0 0 0 0 0 0 0 0 0 0 0 0 0 0 127 0" result="hardAlpha"/>
<feOffset dx="2" dy="4"/>
<feGaussianBlur stdDeviation="4"/>
<feColorMatrix type="matrix" values="0 0 0 0 0.811765 0 0 0 0 0.392157 0 0 0 0 0.847059 0 0 0 1 0"/>
<feBlend mode="normal" in2="BackgroundImageFix" result="effect1_dropShadow_31_4696"/>
<feBlend mode="normal" in="SourceGraphic" in2="effect1_dropShadow_31_4696" result="shape"/>
</filter>
<filter id="filter9_d_31_4696" x="295.566" y="275.927" width="54.9065" height="54.843" filterUnits="userSpaceOnUse" color-interpolation-filters="sRGB">
<feFlood flood-opacity="0" result="BackgroundImageFix"/>
<feColorMatrix in="SourceAlpha" type="matrix" values="0 0 0 0 0 0 0 0 0 0 0 0 0 0 0 0 0 0 127 0" result="hardAlpha"/>
<feOffset dx="2" dy="4"/>
<feGaussianBlur stdDeviation="4"/>
<feColorMatrix type="matrix" values="0 0 0 0 0.74902 0 0 0 0 0.431373 0 0 0 0 0.317647 0 0 0 1 0"/>
<feBlend mode="normal" in2="BackgroundImageFix" result="effect1_dropShadow_31_4696"/>
<feBlend mode="normal" in="SourceGraphic" in2="effect1_dropShadow_31_4696" result="shape"/>
</filter>
<filter id="filter10_d_31_4696" x="349.784" y="275.927" width="54.9065" height="54.843" filterUnits="userSpaceOnUse" color-interpolation-filters="sRGB">
<feFlood flood-opacity="0" result="BackgroundImageFix"/>
<feColorMatrix in="SourceAlpha" type="matrix" values="0 0 0 0 0 0 0 0 0 0 0 0 0 0 0 0 0 0 127 0" result="hardAlpha"/>
<feOffset dx="2" dy="4"/>
<feGaussianBlur stdDeviation="4"/>
<feColorMatrix type="matrix" values="0 0 0 0 0.521569 0 0 0 0 0.819608 0 0 0 0 0.831373 0 0 0 1 0"/>
<feBlend mode="normal" in2="BackgroundImageFix" result="effect1_dropShadow_31_4696"/>
<feBlend mode="normal" in="SourceGraphic" in2="effect1_dropShadow_31_4696" result="shape"/>
</filter>
<linearGradient id="paint0_linear_31_4696" x1="-18" y1="305.97" x2="625" y2="305.97" gradientUnits="userSpaceOnUse">
<stop stop-color="#BFC4E9"/>
<stop offset="1" stop-color="#E8E0EB"/>
</linearGradient>
<linearGradient id="paint1_linear_31_4696" x1="608.71" y1="417.92" x2="466.21" y2="258.05" gradientUnits="userSpaceOnUse">
<stop stop-color="#8066EA" stop-opacity="0"/>
<stop offset="1" stop-color="#DF8BF7"/>
</linearGradient>
<linearGradient id="paint2_linear_31_4696" x1="478.77" y1="67.86" x2="445.8" y2="-12.86" gradientUnits="userSpaceOnUse">
<stop stop-color="#80C3E7" stop-opacity="0"/>
<stop offset="1" stop-color="#A3FFEC"/>
</linearGradient>
<linearGradient id="paint3_linear_31_4696" x1="657.12" y1="120.64" x2="579.53" y2="91.22" gradientUnits="userSpaceOnUse">
<stop stop-color="#8B89FA" stop-opacity="0"/>
<stop offset="1" stop-color="#BAABFB"/>
</linearGradient>
<linearGradient id="paint4_linear_31_4696" x1="56.2097" y1="245.497" x2="218.388" y2="160.053" gradientUnits="userSpaceOnUse">
<stop stop-color="#DE5D83" stop-opacity="0"/>
<stop offset="1" stop-color="#EAAB71"/>
</linearGradient>
<linearGradient id="paint5_linear_31_4696" x1="534.269" y1="613.217" x2="362.68" y2="347.239" gradientUnits="userSpaceOnUse">
<stop stop-color="#8886FA"/>
<stop offset="1" stop-color="#8886FA" stop-opacity="0.3"/>
</linearGradient>
<linearGradient id="paint6_linear_31_4696" x1="367.07" y1="289.85" x2="367.07" y2="-22.0886" gradientUnits="userSpaceOnUse">
<stop stop-color="#5D5DD7"/>
<stop offset="1" stop-color="#8EB6F6"/>
</linearGradient>
<linearGradient id="paint7_linear_31_4696" x1="448.035" y1="182.819" x2="299.247" y2="8.95703" gradientUnits="userSpaceOnUse">
<stop stop-color="#DE5D83"/>
<stop offset="1" stop-color="#EAAB71"/>
</linearGradient>
<linearGradient id="paint8_linear_31_4696" x1="460.494" y1="88.0777" x2="460.494" y2="83.5869" gradientUnits="userSpaceOnUse">
<stop stop-color="#EBB02A"/>
<stop offset="0.17" stop-color="#EDB93D"/>
<stop offset="0.51" stop-color="#F0C85D"/>
<stop offset="0.8" stop-color="#F2D171"/>
<stop offset="1" stop-color="#F3D478"/>
</linearGradient>
<linearGradient id="paint9_linear_31_4696" x1="469.628" y1="88.0777" x2="469.628" y2="83.5869" gradientUnits="userSpaceOnUse">
<stop stop-color="#EBB02A"/>
<stop offset="0.17" stop-color="#EDB93D"/>
<stop offset="0.51" stop-color="#F0C85D"/>
<stop offset="0.8" stop-color="#F2D171"/>
<stop offset="1" stop-color="#F3D478"/>
</linearGradient>
<linearGradient id="paint10_linear_31_4696" x1="478.175" y1="88.0777" x2="478.175" y2="83.5869" gradientUnits="userSpaceOnUse">
<stop stop-color="#EBB02A"/>
<stop offset="0.17" stop-color="#EDB93D"/>
<stop offset="0.51" stop-color="#F0C85D"/>
<stop offset="0.8" stop-color="#F2D171"/>
<stop offset="1" stop-color="#F3D478"/>
</linearGradient>
<linearGradient id="paint11_linear_31_4696" x1="296.32" y1="179.994" x2="296.32" y2="147.652" gradientUnits="userSpaceOnUse">
<stop stop-color="#8066EA"/>
<stop offset="1" stop-color="#C28BF7"/>
</linearGradient>
<linearGradient id="paint12_linear_31_4696" x1="315.371" y1="142.908" x2="315.371" y2="131.136" gradientUnits="userSpaceOnUse">
<stop stop-color="#EBB02A"/>
<stop offset="1" stop-color="#F3D478"/>
</linearGradient>
<linearGradient id="paint13_linear_31_4696" x1="292.628" y1="189.148" x2="275.908" y2="170.779" gradientUnits="userSpaceOnUse">
<stop stop-color="#DE5D83"/>
<stop offset="1" stop-color="#EAAB71"/>
</linearGradient>
<linearGradient id="paint14_linear_31_4696" x1="308.411" y1="236.731" x2="294.46" y2="220.606" gradientUnits="userSpaceOnUse">
<stop stop-color="#EBB02A"/>
<stop offset="1" stop-color="#F3D478"/>
</linearGradient>
<linearGradient id="paint15_linear_31_4696" x1="365.16" y1="178.719" x2="365.16" y2="161.353" gradientUnits="userSpaceOnUse">
<stop stop-color="#DE5D83"/>
<stop offset="1" stop-color="#EAAB71"/>
</linearGradient>
<linearGradient id="paint16_linear_31_4696" x1="367.691" y1="161.732" x2="367.691" y2="121.626" gradientUnits="userSpaceOnUse">
<stop stop-color="#EBB02A"/>
<stop offset="1" stop-color="#F3D478"/>
</linearGradient>
<linearGradient id="paint17_linear_31_4696" x1="412.327" y1="177.639" x2="412.327" y2="163.788" gradientUnits="userSpaceOnUse">
<stop stop-color="#8066EA"/>
<stop offset="1" stop-color="#C28BF7"/>
</linearGradient>
<linearGradient id="paint18_linear_31_4696" x1="419.114" y1="153.624" x2="419.114" y2="122.189" gradientUnits="userSpaceOnUse">
<stop stop-color="#B666EA"/>
<stop offset="1" stop-color="#E9ABDC"/>
</linearGradient>
<linearGradient id="paint19_linear_31_4696" x1="459.493" y1="186.69" x2="459.493" y2="109.635" gradientUnits="userSpaceOnUse">
<stop stop-color="#8886FA"/>
<stop offset="1" stop-color="#8886FA" stop-opacity="0.3"/>
</linearGradient>
<linearGradient id="paint20_linear_31_4696" x1="471.595" y1="176.055" x2="471.595" y2="149.995" gradientUnits="userSpaceOnUse">
<stop stop-color="#80C3E7"/>
<stop offset="1" stop-color="#A3FFEC"/>
</linearGradient>
<linearGradient id="paint21_linear_31_4696" x1="471.595" y1="150.454" x2="471.595" y2="101.389" gradientUnits="userSpaceOnUse">
<stop stop-color="#80C3E7"/>
<stop offset="1" stop-color="#A3FFEC"/>
</linearGradient>
<linearGradient id="paint22_linear_31_4696" x1="412.327" y1="275.298" x2="412.327" y2="172.299" gradientUnits="userSpaceOnUse">
<stop stop-color="#8886FA"/>
<stop offset="1" stop-color="#8886FA" stop-opacity="0.3"/>
</linearGradient>
<linearGradient id="paint23_linear_31_4696" x1="440.362" y1="231.436" x2="411.948" y2="182.033" gradientUnits="userSpaceOnUse">
<stop stop-color="#EBB02A"/>
<stop offset="1" stop-color="#F3D478"/>
</linearGradient>
<linearGradient id="paint24_linear_31_4696" x1="377.021" y1="221.605" x2="372.64" y2="202.192" gradientUnits="userSpaceOnUse">
<stop stop-color="#80C3E7"/>
<stop offset="1" stop-color="#A3FFEC"/>
</linearGradient>
<linearGradient id="paint25_linear_31_4696" x1="187.723" y1="224.959" x2="187.723" y2="-65.4339" gradientUnits="userSpaceOnUse">
<stop stop-color="#8886FA"/>
<stop offset="1" stop-color="#8886FA" stop-opacity="0.3"/>
</linearGradient>
<linearGradient id="paint26_linear_31_4696" x1="194.291" y1="171.862" x2="185.607" y2="149.216" gradientUnits="userSpaceOnUse">
<stop stop-color="#80C3E7"/>
<stop offset="1" stop-color="#A3FFEC"/>
</linearGradient>
<linearGradient id="paint27_linear_31_4696" x1="221.349" y1="157.655" x2="166.032" y2="89.0116" gradientUnits="userSpaceOnUse">
<stop stop-color="#DF6891"/>
<stop offset="1" stop-color="#DF8CE0"/>
</linearGradient>
<linearGradient id="paint28_linear_31_4696" x1="215.976" y1="152.257" x2="168.651" y2="93.5266" gradientUnits="userSpaceOnUse">
<stop stop-color="#DF6891"/>
<stop offset="1" stop-color="#DF8CE0"/>
</linearGradient>
<linearGradient id="paint29_linear_31_4696" x1="372.017" y1="105.547" x2="372.017" y2="-73.3702" gradientUnits="userSpaceOnUse">
<stop stop-color="#8886FA"/>
<stop offset="1" stop-color="#8886FA" stop-opacity="0.3"/>
</linearGradient>
<linearGradient id="paint30_linear_31_4696" x1="372.017" y1="20.7398" x2="372.017" y2="62.2359" gradientUnits="userSpaceOnUse">
<stop stop-color="#BEABFB"/>
<stop offset="1" stop-color="#BEABFB" stop-opacity="0.1"/>
</linearGradient>
<linearGradient id="paint31_linear_31_4696" x1="348.433" y1="70.6546" x2="344.692" y2="63.8042" gradientUnits="userSpaceOnUse">
<stop stop-color="#EBB02A"/>
<stop offset="1" stop-color="#F3D478"/>
</linearGradient>
<linearGradient id="paint32_linear_31_4696" x1="361.652" y1="70.6546" x2="357.922" y2="63.8043" gradientUnits="userSpaceOnUse">
<stop stop-color="#EBB02A"/>
<stop offset="1" stop-color="#F3D478"/>
</linearGradient>
<linearGradient id="paint33_linear_31_4696" x1="374.386" y1="70.6546" x2="370.657" y2="63.8042" gradientUnits="userSpaceOnUse">
<stop stop-color="#EBB02A"/>
<stop offset="1" stop-color="#F3D478"/>
</linearGradient>
<linearGradient id="paint34_linear_31_4696" x1="387.616" y1="70.6546" x2="383.875" y2="63.8042" gradientUnits="userSpaceOnUse">
<stop stop-color="#EBB02A"/>
<stop offset="1" stop-color="#F3D478"/>
</linearGradient>
<linearGradient id="paint35_linear_31_4696" x1="400.293" y1="70.6546" x2="396.564" y2="63.8043" gradientUnits="userSpaceOnUse">
<stop stop-color="#EBB02A"/>
<stop offset="1" stop-color="#F3D478"/>
</linearGradient>
<linearGradient id="paint36_linear_31_4696" x1="323.205" y1="340.615" x2="323.205" y2="280.157" gradientUnits="userSpaceOnUse">
<stop stop-color="#8886FA"/>
<stop offset="1" stop-color="#8886FA" stop-opacity="0.3"/>
</linearGradient>
<linearGradient id="paint37_linear_31_4696" x1="268.055" y1="330.841" x2="268.055" y2="282.936" gradientUnits="userSpaceOnUse">
<stop stop-color="#DF6891"/>
<stop offset="1" stop-color="#DF8CE0"/>
</linearGradient>
<linearGradient id="paint38_linear_31_4696" x1="321.019" y1="330.841" x2="321.019" y2="282.936" gradientUnits="userSpaceOnUse">
<stop stop-color="#DE5D83"/>
<stop offset="1" stop-color="#EAAB71"/>
</linearGradient>
<linearGradient id="paint39_linear_31_4696" x1="375.238" y1="330.841" x2="375.238" y2="282.936" gradientUnits="userSpaceOnUse">
<stop stop-color="#80C3E7"/>
<stop offset="1" stop-color="#A3FFEC"/>
</linearGradient>
<linearGradient id="paint40_linear_31_4696" x1="546.9" y1="109.279" x2="546.9" y2="3.36265" gradientUnits="userSpaceOnUse">
<stop stop-color="#8886FA"/>
<stop offset="1" stop-color="#8886FA" stop-opacity="0.3"/>
</linearGradient>
<linearGradient id="paint41_linear_31_4696" x1="500.125" y1="192.674" x2="508.93" y2="180.532" gradientUnits="userSpaceOnUse">
<stop stop-color="#E098B1"/>
<stop offset="1" stop-color="#ECB4C0"/>
</linearGradient>
<linearGradient id="paint42_linear_31_4696" x1="518.405" y1="199.691" x2="520.079" y2="215.3" gradientUnits="userSpaceOnUse">
<stop stop-color="#D1719E"/>
<stop offset="1" stop-color="#E098B1" stop-opacity="0.3"/>
</linearGradient>
<linearGradient id="paint43_linear_31_4696" x1="473.551" y1="198.164" x2="479.172" y2="184.696" gradientUnits="userSpaceOnUse">
<stop stop-color="#E9A8BC"/>
<stop offset="1" stop-color="#F0C6C7"/>
</linearGradient>
<linearGradient id="paint44_linear_31_4696" x1="505.797" y1="189.194" x2="502.012" y2="209.605" gradientUnits="userSpaceOnUse">
<stop stop-color="#D1719E"/>
<stop offset="1" stop-color="#E098B1" stop-opacity="0.3"/>
</linearGradient>
<linearGradient id="paint45_linear_31_4696" x1="538.065" y1="298.636" x2="514.275" y2="299.627" gradientUnits="userSpaceOnUse">
<stop stop-color="#2F2B86"/>
<stop offset="1" stop-color="#4141BB"/>
</linearGradient>
<linearGradient id="paint46_linear_31_4696" x1="526.4" y1="306.515" x2="512.346" y2="337.543" gradientUnits="userSpaceOnUse">
<stop stop-color="#2F2B86"/>
<stop offset="1" stop-color="#2F2B86" stop-opacity="0.3"/>
</linearGradient>
<linearGradient id="paint47_linear_31_4696" x1="554.47" y1="296.224" x2="529.468" y2="304.564" gradientUnits="userSpaceOnUse">
<stop stop-color="#3535A0"/>
<stop offset="1" stop-color="#4A4AD0"/>
</linearGradient>
<linearGradient id="paint48_linear_31_4696" x1="518.865" y1="240.004" x2="550.812" y2="240.004" gradientUnits="userSpaceOnUse">
<stop stop-color="#2F2B86"/>
<stop offset="1" stop-color="#2F2B86" stop-opacity="0.3"/>
</linearGradient>
<linearGradient id="paint49_linear_31_4696" x1="542.874" y1="147.583" x2="538.711" y2="122.6" gradientUnits="userSpaceOnUse">
<stop stop-color="#3535A0"/>
<stop offset="1" stop-color="#796AD9"/>
</linearGradient>
<linearGradient id="paint50_linear_31_4696" x1="541.403" y1="147.823" x2="537.241" y2="122.852" gradientUnits="userSpaceOnUse">
<stop stop-color="#3535A0"/>
<stop offset="1" stop-color="#796AD9"/>
</linearGradient>
<linearGradient id="paint51_linear_31_4696" x1="547.165" y1="159.16" x2="527.882" y2="151.385" gradientUnits="userSpaceOnUse">
<stop stop-color="#E9A8BC"/>
<stop offset="1" stop-color="#F0C6C7"/>
</linearGradient>
<linearGradient id="paint52_linear_31_4696" x1="537.766" y1="161.285" x2="534.554" y2="169.454" gradientUnits="userSpaceOnUse">
<stop stop-color="#D1719E"/>
<stop offset="1" stop-color="#E098B1" stop-opacity="0.3"/>
</linearGradient>
<linearGradient id="paint53_linear_31_4696" x1="550.501" y1="209.626" x2="522.398" y2="198.177" gradientUnits="userSpaceOnUse">
<stop stop-color="#EBB040"/>
<stop offset="1" stop-color="#F3D478"/>
</linearGradient>
<linearGradient id="paint54_linear_31_4696" x1="529.299" y1="159.964" x2="602.026" y2="212.61" gradientUnits="userSpaceOnUse">
<stop stop-color="#F3D35B"/>
<stop offset="1" stop-color="#EBB02A" stop-opacity="0.3"/>
</linearGradient>
<linearGradient id="paint55_linear_31_4696" x1="498.676" y1="185.128" x2="562.279" y2="231.167" gradientUnits="userSpaceOnUse">
<stop stop-color="#F3D35B"/>
<stop offset="1" stop-color="#EBB02A" stop-opacity="0.3"/>
</linearGradient>
<linearGradient id="paint56_linear_31_4696" x1="507.12" y1="178.007" x2="578.698" y2="229.824" gradientUnits="userSpaceOnUse">
<stop stop-color="#F3D35B"/>
<stop offset="1" stop-color="#EBB02A" stop-opacity="0.3"/>
</linearGradient>
<linearGradient id="paint57_linear_31_4696" x1="514.31" y1="164.397" x2="649.445" y2="262.208" gradientUnits="userSpaceOnUse">
<stop stop-color="#F3D35B"/>
<stop offset="1" stop-color="#EBB02A" stop-opacity="0.3"/>
</linearGradient>
<linearGradient id="paint58_linear_31_4696" x1="523.996" y1="183.738" x2="626.335" y2="257.816" gradientUnits="userSpaceOnUse">
<stop stop-color="#F3D35B"/>
<stop offset="1" stop-color="#EBB02A" stop-opacity="0.3"/>
</linearGradient>
<linearGradient id="paint59_linear_31_4696" x1="514.724" y1="194.994" x2="642.596" y2="287.556" gradientUnits="userSpaceOnUse">
<stop stop-color="#F3D35B"/>
<stop offset="1" stop-color="#EBB02A" stop-opacity="0.3"/>
</linearGradient>
<linearGradient id="paint60_linear_31_4696" x1="515.598" y1="210.912" x2="633.462" y2="296.235" gradientUnits="userSpaceOnUse">
<stop stop-color="#F3D35B"/>
<stop offset="1" stop-color="#EBB02A" stop-opacity="0.3"/>
</linearGradient>
<linearGradient id="paint61_linear_31_4696" x1="529.426" y1="193.363" x2="475.966" y2="267.319" gradientUnits="userSpaceOnUse">
<stop stop-color="#E27A1E"/>
<stop offset="1" stop-color="#E27A1E" stop-opacity="0.3"/>
</linearGradient>
<linearGradient id="paint62_linear_31_4696" x1="488.656" y1="190.698" x2="540.773" y2="172.222" gradientUnits="userSpaceOnUse">
<stop stop-color="#F9EC8A"/>
<stop offset="1" stop-color="#EBB02A" stop-opacity="0.3"/>
</linearGradient>
<clipPath id="clip0_31_4696">
<rect width="624" height="408" fill="white"/>
</clipPath>
</defs>
</svg>
