<svg width="71" height="25" viewBox="0 0 71 25" fill="none" xmlns="http://www.w3.org/2000/svg">
<path fill-rule="evenodd" clip-rule="evenodd" d="M70.4915 12.161L70.4883 12.1565L70.4898 12.1556L70.4915 12.1546L69.3446 10.5817L66.0145 5.99583L68.6297 2.38291L70.1573 0.274759L70.1561 0.274021L70.1573 0.272342L70.1541 0.27288C69.5572 -0.171712 68.7186 -0.0419329 68.2795 0.564126L64.3439 5.99583L68.6127 11.8708C69.0524 12.4739 69.8877 12.6016 70.4831 12.1596L70.4915 12.161ZM60.0751 3.87094L64.3439 9.74588L60.4086 15.1775C59.9693 15.7837 59.1309 15.9134 58.5338 15.4688L58.5306 15.4694L58.532 15.4677L58.5306 15.4669L60.0583 13.3588L62.6733 9.74588L59.3432 5.16006L58.1964 3.58714L58.1981 3.58615L58.1997 3.5852L58.1964 3.58077L58.205 3.58204C58.8001 3.14014 59.6355 3.26783 60.0751 3.87094ZM34.8359 11.595V14.4428V18.7135C34.8359 22.1512 33.0396 24.0088 29.9094 24.0088C26.7788 24.0088 24.9999 22.1512 24.9999 18.7135V14.4428V11.595C25.7747 11.595 26.4029 12.2325 26.4029 13.0189L26.4027 13.0209L26.4025 13.0228V18.7307C26.4025 21.3696 27.5998 22.6717 29.9094 22.6717C32.2356 22.6717 33.433 21.3696 33.433 18.7307V13.0189C33.433 12.2325 34.0611 11.595 34.8359 11.595ZM17.213 13.3663V23.595H15.5737V14.7237V12.0088C16.4791 12.0088 17.213 12.6166 17.213 13.3663ZM43.8522 22.3536H47.5082C49.9453 22.3536 52.0489 20.6527 52.0489 17.8685C52.0489 15.0341 49.9453 13.2502 47.4081 13.2502H43.8522V22.3536ZM47.5914 12.0088H42.6227V23.595H47.6924C50.9935 23.595 53.6883 21.2943 53.6883 17.868C53.6883 14.3923 50.9596 12.0088 47.5914 12.0088ZM1.63934 22.7674H4.85115C6.28979 22.7674 7.37701 21.9003 7.37701 20.4996C7.37701 19.1658 6.18947 18.2157 4.7675 18.2157H1.63934V22.7674ZM1.2295 13.2502H4.15023C5.58393 13.2502 6.55734 13.9781 6.55734 15.0952C6.55734 16.1112 5.58393 16.9743 4.15023 16.9743H1.2295V13.2502ZM5.88971 17.2226V17.2391C7.03731 17.3882 8.60651 18.5303 8.60651 20.1851C8.60651 22.188 7.18887 23.595 4.70848 23.595H0V12.0088H4.43844C6.46327 12.0088 7.8473 13.1839 7.8473 14.8556C7.8473 16.0307 6.83451 17.0405 5.88971 17.2226Z" fill="#EA368E"/>
</svg>
