<svg width="24" height="25" viewBox="0 0 24 25" fill="none" xmlns="http://www.w3.org/2000/svg">
<path fill-rule="evenodd" clip-rule="evenodd" d="M2.32698 5.64682C2 6.28855 2 7.12863 2 8.80879V15.2088C2 16.8889 2 17.729 2.32698 18.3708C2.6146 18.9352 3.07354 19.3942 3.63803 19.6818C4.27976 20.0088 5.11984 20.0088 6.8 20.0088H17.2C18.8802 20.0088 19.7202 20.0088 20.362 19.6818C20.9265 19.3942 21.3854 18.9352 21.673 18.3708C22 17.729 22 16.8889 22 15.2088V8.80879C22 7.12863 22 6.28855 21.673 5.64682C21.3854 5.08233 20.9265 4.62339 20.362 4.33577C19.7202 4.00879 18.8802 4.00879 17.2 4.00879H6.8C5.11984 4.00879 4.27976 4.00879 3.63803 4.33577C3.07354 4.62339 2.6146 5.08233 2.32698 5.64682ZM7.56569 8.18417C7.11026 7.87175 6.4878 7.98768 6.17538 8.4431C5.86296 8.89852 5.97889 9.52099 6.43431 9.83341L10.3029 12.4873C11.3256 13.1888 12.6744 13.1888 13.6971 12.4873L17.5657 9.83341C18.0211 9.52099 18.137 8.89852 17.8246 8.4431C17.5122 7.98768 16.8897 7.87175 16.4343 8.18417L12.5657 10.838C12.2248 11.0719 11.7752 11.0719 11.4343 10.838L7.56569 8.18417Z" fill="#8886FA"/>
</svg>
