<svg width="60" height="25" viewBox="0 0 60 25" fill="none" xmlns="http://www.w3.org/2000/svg">
<path d="M10.0884 7.55662L9.88341 6.88L4.36819 9.77977L4.09399 9.92406L4.42521 10.4354L4.43742 10.4298L4.98582 10.151L10.0897 7.56222L10.0884 7.55662Z" fill="#7E41FF"/>
<path d="M7.77397 0.00878906L6.76676 4.14411L3.47365 1.07624L3.89445 5.59119L0 3.72105L3.80486 9.44073L9.7178 6.32523L7.77397 0.00878906Z" fill="#7E41FF"/>
<path d="M59.8624 11.1344C59.7674 10.8053 59.6044 10.5013 59.3846 10.2435C59.1539 9.9797 58.8704 9.77082 58.5538 9.6313C57.7758 9.32155 56.9187 9.29487 56.124 9.55565C55.9058 9.63785 55.6998 9.751 55.5118 9.89186C55.4222 9.95979 55.3378 10.0347 55.2593 10.116C55.0243 10.3595 54.8436 10.653 54.7299 10.9761C54.6088 11.3171 54.5428 11.6763 54.5345 12.0394L54.3729 17.5573C54.3608 17.9203 54.4067 18.2828 54.5087 18.6304C54.603 18.9598 54.7661 19.2639 54.9865 19.5213C55.2167 19.786 55.5003 19.9954 55.8172 20.1349C56.2009 20.2984 56.6116 20.384 57.0267 20.387C57.1624 20.387 57.2982 20.387 57.4204 20.38C57.7026 20.3653 57.9811 20.3078 58.247 20.2091C58.5714 20.0887 58.8667 19.8976 59.1131 19.6488C59.3471 19.4047 59.5272 19.1113 59.6411 18.7887C59.7625 18.4477 59.829 18.0886 59.8379 17.7254L59.9981 12.2075C60.0101 11.8445 59.9642 11.482 59.8624 11.1344ZM58.2145 12.1963L58.0556 17.626C58.0448 18.0322 57.9692 18.3292 57.8289 18.5169C57.6887 18.7046 57.4367 18.7933 57.0729 18.7831C56.7109 18.7719 56.4643 18.6677 56.3331 18.4707C56.2055 18.2746 56.1471 17.972 56.158 17.5671L56.3168 12.1374C56.329 11.7312 56.4036 11.437 56.5435 11.2451C56.6833 11.0532 56.9358 10.9649 57.2996 10.9789C57.6633 10.9929 57.9104 11.0952 58.0393 11.2927C58.1683 11.4902 58.2335 11.7914 58.2145 12.1963Z" fill="#7E41FF"/>
<path d="M52.326 12.7117L51.6079 12.7523L51.2292 12.7733L50.0482 12.8391L49.9342 13.7525L49.9016 14.0187L48.8279 22.6129L48.6582 23.9633L50.4324 23.8639L50.5681 22.1576L50.6292 21.404L52.6395 21.2919L52.6979 21.6043L53.0929 23.7154L54.6852 23.6271L54.8671 23.6173L54.2969 21.191L52.326 12.7117ZM50.8111 19.744L51.2875 14.9811H51.3174L52.2893 19.6711L50.8111 19.744Z" fill="#7E41FF"/>
<path d="M49.6898 11.6499C49.7726 11.5336 49.9274 11.4692 50.1541 11.4552C50.3083 11.4464 50.4628 11.4663 50.6102 11.514C50.6848 11.5392 50.7608 11.5673 50.8369 11.5995C50.9129 11.6317 50.9835 11.6611 51.0568 11.6961C51.2091 11.7699 51.366 11.8331 51.5264 11.8853C51.6906 11.9376 51.8626 11.9589 52.0341 11.9483C52.1653 11.9416 52.295 11.9167 52.4196 11.874C52.5027 11.8442 52.5817 11.8033 52.6544 11.7522C52.8219 11.6379 52.9651 11.4897 53.0753 11.3165C53.1892 11.1322 53.2761 10.9316 53.3332 10.7211C53.3939 10.5054 53.4393 10.2853 53.4689 10.0627L52.6409 10.109V10.123C52.6531 10.2978 52.6107 10.4721 52.5201 10.6203C52.4373 10.738 52.2825 10.8024 52.0558 10.815C51.9004 10.8249 51.7447 10.7996 51.5997 10.7408C51.4531 10.6819 51.3038 10.6217 51.1531 10.5586C51.0025 10.4956 50.845 10.4382 50.6835 10.3863C50.5194 10.3334 50.3473 10.312 50.1758 10.3233C49.9529 10.3276 49.7353 10.3939 49.5459 10.5152C49.4469 10.581 49.3558 10.6585 49.2745 10.7464C49.2155 10.8109 49.1624 10.8807 49.1156 10.9551C49.0024 11.1385 48.9186 11.3395 48.8672 11.5505C48.8106 11.7664 48.7675 11.9858 48.7383 12.2075L49.5663 12.1626C49.553 11.9825 49.5963 11.8027 49.6898 11.6499Z" fill="#7E41FF"/>
<path d="M46.9981 19.3881C47.4958 18.8838 47.7673 18.076 47.8125 16.9647L47.875 15.5204L47.8845 15.3005L47.9388 14.0215L47.9944 12.7075C48.0064 12.4535 48.0032 12.199 47.9849 11.9454C47.9279 11.2086 47.7284 10.6333 47.3863 10.2196C46.9338 9.67229 46.2406 9.37718 45.3067 9.33422L42.653 9.21375V9.22775L42.3 17.4592L42.2444 18.79L42.2091 19.5913V19.7313L42.1996 19.9625L44.8533 20.083C45.233 20.1067 45.6139 20.0698 45.9827 19.9737C46.3649 19.8733 46.7149 19.6714 46.9981 19.3881ZM44.6715 18.5476L44.0511 18.5196L44.0579 18.3515L44.066 18.1862L44.1068 17.2294L44.1746 15.6423L44.3878 10.8135L45.0081 10.8415C45.4886 10.864 45.8225 10.9816 45.9963 11.2142C46.17 11.4467 46.2515 11.8375 46.2271 12.4035L46.17 13.7161L46.0913 15.5778L46.0424 16.6985L46.0343 16.8918L46.0262 17.1047C46.0017 17.6707 45.8913 18.0583 45.6949 18.2675C45.4986 18.4767 45.1574 18.5714 44.6715 18.5518V18.5476Z" fill="#7E41FF"/>
<path d="M40.8585 23.48L40.8164 22.6311L40.7227 20.8282V20.7189L40.6915 20.0942L40.6413 19.0757L40.3508 13.258L40.3155 12.5492L38.1097 12.2494V12.262L34.8519 22.6633L35.0134 22.6857L36.5704 22.8973L37.1866 20.5747L38.8671 20.803L39.1386 20.8394V21.3998V21.9209V22.0105V23.2461L39.5146 23.2979L40.815 23.4744L40.8585 23.48ZM37.64 19.0127L38.2047 17.0417L38.9255 14.5202H38.954L38.9839 15.6591L39.0721 19.1976L37.64 19.0127Z" fill="#7E41FF"/>
<path d="M29.5416 15.781L29.6108 17.5601C29.6244 17.9319 29.6964 18.2991 29.824 18.6471C29.9438 18.9764 30.1319 19.2748 30.3751 19.5213C30.4672 19.6147 30.5671 19.6995 30.6737 19.7748C30.8579 19.9037 31.0572 20.0077 31.2669 20.0844C31.6697 20.2231 32.0947 20.2801 32.5184 20.2525C32.9263 20.2425 33.3283 20.1506 33.7021 19.9822L33.7523 19.9569C34.0492 19.8128 34.3127 19.6045 34.5247 19.3462C34.6462 19.1931 34.7497 19.0257 34.8329 18.8475C34.8962 18.7122 34.9485 18.5716 34.989 18.4272C35.089 18.0702 35.1316 17.6987 35.1152 17.3275L35.065 16.0668L34.3618 16.0962L33.2406 16.1438L33.2922 17.4648C33.3205 17.751 33.2652 18.0393 33.1334 18.2927C33.0139 18.4898 32.7877 18.5958 32.4546 18.6107C32.0814 18.6261 31.8234 18.5379 31.6782 18.346C31.533 18.154 31.4515 17.8515 31.4352 17.4368L31.2207 11.8796C31.2045 11.4594 31.2601 11.1554 31.3904 10.9523C31.5207 10.7491 31.7705 10.6399 32.1438 10.6245C32.2623 10.6202 32.3803 10.6431 32.4892 10.6916C32.5981 10.74 32.6953 10.8128 32.7736 10.9046C32.9601 11.1045 33.0619 11.4374 33.0791 11.9034L33.113 12.7538L34.9089 12.6781H34.9374L34.9062 11.874C34.8922 11.4824 34.8194 11.0953 34.6903 10.7267C34.5696 10.3815 34.3852 10.0637 34.1474 9.79095C33.905 9.52009 33.6067 9.30895 33.2745 9.17317C32.8922 9.02042 32.4824 8.95494 32.0732 8.98126C31.6478 8.99123 31.2282 9.08638 30.838 9.26143C30.5173 9.40678 30.231 9.62236 29.9991 9.89321C29.7759 10.1592 29.6119 10.4724 29.5185 10.8108C29.4159 11.1692 29.3718 11.5427 29.3882 11.916L29.5416 15.781Z" fill="#7E41FF"/>
<path d="M27.7105 20.4178L27.8584 17.7533L28.2263 11.1469L28.2304 11.0825L28.2086 11.0811L26.5376 10.9816L26.3218 14.8606L26.1806 17.4213L26.1494 17.4199L24.2721 10.9998L24.2259 10.8443L22.4884 10.7421L22.3364 13.4877L22.0622 18.3963L21.8627 21.9993L23.554 22.1002L23.6884 19.6865L23.9205 15.5302L23.9463 15.0679L23.9762 15.0693L24.2069 15.9L25.7055 21.2863L25.9716 22.2431L26.9869 22.3033L27.6032 22.3397L27.7105 20.4178Z" fill="#7E41FF"/>
<path d="M19.4233 18.9204L21.15 18.7565L20.7686 17.3794L18.2845 8.27387L18.2695 8.21924H18.2437L16.0596 8.42797L15.6348 13.2987L15.1081 19.3224L16.832 19.1641L16.9352 16.7588L18.8926 16.5711L19.4233 18.9204ZM17.8487 15.0596L17.0519 15.1352L17.0954 14.4614L17.3451 10.4662H17.3736L18.4908 14.998L17.8487 15.0596Z" fill="#7E41FF"/>
<path d="M13.71 11.7087C13.1299 11.1708 12.2295 10.9023 11.0087 10.9032H8.17712V22.76V22.7768H10.1535V17.9089H11.0141C11.5484 17.9177 12.0814 17.8541 12.5996 17.7198C13.0142 17.6136 13.3972 17.4044 13.7154 17.1104C14.0194 16.812 14.2442 16.4382 14.3683 16.0247C14.5235 15.5003 14.5963 14.9536 14.5842 14.4053C14.5842 13.3211 14.3692 12.5039 13.9394 11.9538C13.8698 11.8656 13.793 11.7836 13.71 11.7087ZM12.5222 15.2851C12.4801 15.4943 12.384 15.6879 12.244 15.8454C12.0996 15.9944 11.9168 16.0975 11.7173 16.1424C11.453 16.2018 11.1828 16.2291 10.9123 16.2236H10.1535V12.58H10.9178C11.1887 12.5741 11.4592 12.6043 11.7227 12.6697C11.9205 12.7191 12.1022 12.8216 12.2494 12.9667C12.3917 13.1225 12.4882 13.3168 12.5277 13.527C12.6344 14.1083 12.6344 14.7052 12.5277 15.2865L12.5222 15.2851Z" fill="#7E41FF"/>
</svg>
